<?xml version="1.0" encoding="iso-8859-1"?>
<!-- Generator: Adobe Illustrator 18.1.1, SVG Export Plug-In . SVG Version: 6.00 Build 0)  -->
<svg xmlns="http://www.w3.org/2000/svg" xmlns:xlink="http://www.w3.org/1999/xlink" version="1.1" id="Capa_1" x="0px" y="0px" viewBox="0 0 475 475" style="enable-background:new 0 0 475 475;" xml:space="preserve" width="256px" height="256px">
<g>
	<g>
		<g>
			<path d="M238,0C107,0,0,107,0,238s107,237,238,237s237-106,237-237S369,0,238,0z M238,432     c-107,0-194-87-194-194S131,44,238,44s194,87,194,194S345,432,238,432z" fill="#000000"/>
			<path d="M236,89c-80,0-98,59-98,82c0,12,10,21,22,21s22-9,22-21c0-9,5-39,54-39c24,0,42,7,53,19     c14,15,13,35,12,43c-3,23-15,35-38,35c-40,0-49,22-49,40v18c0,12,10,22,22,22s22-10,22-22v-14c1,0,3-1,5-1c35,0,75-19,81-73     c3-29-4-57-22-77C309,107,282,89,236,89z" fill="#000000"/>
			<path d="M236,331c-15,0-27,12-27,27s12,27,27,27s27-12,27-27S251,331,236,331z" fill="#000000"/>
		</g>
	</g>
</g>
<g>
</g>
<g>
</g>
<g>
</g>
<g>
</g>
<g>
</g>
<g>
</g>
<g>
</g>
<g>
</g>
<g>
</g>
<g>
</g>
<g>
</g>
<g>
</g>
<g>
</g>
<g>
</g>
<g>
</g>
</svg>
