<?xml version="1.0" standalone="no"?>
<!DOCTYPE svg PUBLIC "-//W3C//DTD SVG 1.1//EN"
  "http://www.w3.org/Graphics/SVG/1.1/DTD/svg11.dtd">
<svg width="201" height="401" version="1.1"
  xmlns="http://www.w3.org/2000/svg">
<line x1="0" y1="0" x2="200" y2="0" style="stroke:black;"/><line x1="0" y1="10" x2="200" y2="10" style="stroke:black;"/><line x1="0" y1="20" x2="200" y2="20" style="stroke:black;"/><line x1="0" y1="30" x2="200" y2="30" style="stroke:black;"/><line x1="0" y1="40" x2="200" y2="40" style="stroke:black;"/><line x1="0" y1="50" x2="200" y2="50" style="stroke:black;"/><line x1="0" y1="60" x2="200" y2="60" style="stroke:black;"/><line x1="0" y1="70" x2="200" y2="70" style="stroke:black;"/><line x1="0" y1="80" x2="200" y2="80" style="stroke:black;"/><line x1="0" y1="90" x2="200" y2="90" style="stroke:black;"/><line x1="0" y1="100" x2="200" y2="100" style="stroke:black;"/><line x1="0" y1="110" x2="200" y2="110" style="stroke:black;"/><line x1="0" y1="120" x2="200" y2="120" style="stroke:black;"/><line x1="0" y1="130" x2="200" y2="130" style="stroke:black;"/><line x1="0" y1="140" x2="200" y2="140" style="stroke:black;"/><line x1="0" y1="150" x2="200" y2="150" style="stroke:black;"/><line x1="0" y1="160" x2="200" y2="160" style="stroke:black;"/><line x1="0" y1="170" x2="200" y2="170" style="stroke:black;"/><line x1="0" y1="180" x2="200" y2="180" style="stroke:black;"/><line x1="0" y1="190" x2="200" y2="190" style="stroke:black;"/><line x1="0" y1="200" x2="200" y2="200" style="stroke:black;"/><line x1="0" y1="210" x2="200" y2="210" style="stroke:black;"/><line x1="0" y1="220" x2="200" y2="220" style="stroke:black;"/><line x1="0" y1="230" x2="200" y2="230" style="stroke:black;"/><line x1="0" y1="240" x2="200" y2="240" style="stroke:black;"/><line x1="0" y1="250" x2="200" y2="250" style="stroke:black;"/><line x1="0" y1="260" x2="200" y2="260" style="stroke:black;"/><line x1="0" y1="270" x2="200" y2="270" style="stroke:black;"/><line x1="0" y1="280" x2="200" y2="280" style="stroke:black;"/><line x1="0" y1="290" x2="200" y2="290" style="stroke:black;"/><line x1="0" y1="300" x2="200" y2="300" style="stroke:black;"/><line x1="0" y1="310" x2="200" y2="310" style="stroke:black;"/><line x1="0" y1="320" x2="200" y2="320" style="stroke:black;"/><line x1="0" y1="330" x2="200" y2="330" style="stroke:black;"/><line x1="0" y1="340" x2="200" y2="340" style="stroke:black;"/><line x1="0" y1="350" x2="200" y2="350" style="stroke:black;"/><line x1="0" y1="360" x2="200" y2="360" style="stroke:black;"/><line x1="0" y1="370" x2="200" y2="370" style="stroke:black;"/><line x1="0" y1="380" x2="200" y2="380" style="stroke:black;"/><line x1="0" y1="390" x2="200" y2="390" style="stroke:black;"/><line x1="0" y1="400" x2="200" y2="400" style="stroke:black;"/><line x1="0" y1="0" x2="0" y2="400" style="stroke:black;"/><line x1="10" y1="0" x2="10" y2="400" style="stroke:black;"/><line x1="20" y1="0" x2="20" y2="400" style="stroke:black;"/><line x1="30" y1="0" x2="30" y2="400" style="stroke:black;"/><line x1="40" y1="0" x2="40" y2="400" style="stroke:black;"/><line x1="50" y1="0" x2="50" y2="400" style="stroke:black;"/><line x1="60" y1="0" x2="60" y2="400" style="stroke:black;"/><line x1="70" y1="0" x2="70" y2="400" style="stroke:black;"/><line x1="80" y1="0" x2="80" y2="400" style="stroke:black;"/><line x1="90" y1="0" x2="90" y2="400" style="stroke:black;"/><line x1="100" y1="0" x2="100" y2="400" style="stroke:black;"/><line x1="110" y1="0" x2="110" y2="400" style="stroke:black;"/><line x1="120" y1="0" x2="120" y2="400" style="stroke:black;"/><line x1="130" y1="0" x2="130" y2="400" style="stroke:black;"/><line x1="140" y1="0" x2="140" y2="400" style="stroke:black;"/><line x1="150" y1="0" x2="150" y2="400" style="stroke:black;"/><line x1="160" y1="0" x2="160" y2="400" style="stroke:black;"/><line x1="170" y1="0" x2="170" y2="400" style="stroke:black;"/><line x1="180" y1="0" x2="180" y2="400" style="stroke:black;"/><line x1="190" y1="0" x2="190" y2="400" style="stroke:black;"/><line x1="200" y1="0" x2="200" y2="400" style="stroke:black;"/><rect x="60" y="0" width="10" height="10" rx="0" ry="0" style="stroke:black;"/><rect x="70" y="0" width="10" height="10" rx="0" ry="0" style="stroke:black;"/><rect x="70" y="10" width="10" height="10" rx="0" ry="0" style="stroke:black;"/><rect x="80" y="10" width="10" height="10" rx="0" ry="0" style="stroke:black;"/><rect x="90" y="10" width="10" height="10" rx="0" ry="0" style="stroke:black;"/><rect x="100" y="10" width="10" height="10" rx="0" ry="0" style="stroke:black;"/><rect x="110" y="10" width="10" height="10" rx="0" ry="0" style="stroke:black;"/><rect x="90" y="20" width="10" height="10" rx="0" ry="0" style="stroke:black;"/><rect x="100" y="20" width="10" height="10" rx="0" ry="0" style="stroke:black;"/><rect x="110" y="20" width="10" height="10" rx="0" ry="0" style="stroke:black;"/><rect x="120" y="20" width="10" height="10" rx="0" ry="0" style="stroke:black;"/><rect x="130" y="20" width="10" height="10" rx="0" ry="0" style="stroke:black;"/><rect x="140" y="20" width="10" height="10" rx="0" ry="0" style="stroke:black;"/><rect x="150" y="20" width="10" height="10" rx="0" ry="0" style="stroke:black;"/><rect x="160" y="20" width="10" height="10" rx="0" ry="0" style="stroke:black;"/><rect x="170" y="20" width="10" height="10" rx="0" ry="0" style="stroke:black;"/><rect x="180" y="20" width="10" height="10" rx="0" ry="0" style="stroke:black;"/><rect x="190" y="20" width="10" height="10" rx="0" ry="0" style="stroke:black;"/><rect x="90" y="30" width="10" height="10" rx="0" ry="0" style="stroke:black;"/><rect x="100" y="30" width="10" height="10" rx="0" ry="0" style="stroke:black;"/><rect x="20" y="40" width="10" height="10" rx="0" ry="0" style="stroke:black;"/><rect x="30" y="40" width="10" height="10" rx="0" ry="0" style="stroke:black;"/><rect x="40" y="40" width="10" height="10" rx="0" ry="0" style="stroke:black;"/><rect x="50" y="40" width="10" height="10" rx="0" ry="0" style="stroke:black;"/><rect x="90" y="40" width="10" height="10" rx="0" ry="0" style="stroke:black;"/><rect x="10" y="50" width="10" height="10" rx="0" ry="0" style="stroke:black;"/><rect x="20" y="50" width="10" height="10" rx="0" ry="0" style="stroke:black;"/><rect x="30" y="50" width="10" height="10" rx="0" ry="0" style="stroke:black;"/><rect x="40" y="50" width="10" height="10" rx="0" ry="0" style="stroke:black;"/><rect x="50" y="50" width="10" height="10" rx="0" ry="0" style="stroke:black;"/><rect x="60" y="50" width="10" height="10" rx="0" ry="0" style="stroke:black;"/><rect x="90" y="50" width="10" height="10" rx="0" ry="0" style="stroke:black;"/><rect x="10" y="60" width="10" height="10" rx="0" ry="0" style="stroke:black;"/><rect x="20" y="60" width="10" height="10" rx="0" ry="0" style="stroke:black;"/><rect x="30" y="60" width="10" height="10" rx="0" ry="0" style="stroke:black;"/><rect x="40" y="60" width="10" height="10" rx="0" ry="0" style="stroke:black;"/><rect x="50" y="60" width="10" height="10" rx="0" ry="0" style="stroke:black;"/><rect x="70" y="60" width="10" height="10" rx="0" ry="0" style="stroke:black;"/><rect x="80" y="60" width="10" height="10" rx="0" ry="0" style="stroke:black;"/><rect x="100" y="60" width="10" height="10" rx="0" ry="0" style="stroke:black;"/><rect x="10" y="70" width="10" height="10" rx="0" ry="0" style="stroke:black;"/><rect x="20" y="70" width="10" height="10" rx="0" ry="0" style="stroke:black;"/><rect x="30" y="70" width="10" height="10" rx="0" ry="0" style="stroke:black;"/><rect x="40" y="70" width="10" height="10" rx="0" ry="0" style="stroke:black;"/><rect x="60" y="70" width="10" height="10" rx="0" ry="0" style="stroke:black;"/><rect x="70" y="70" width="10" height="10" rx="0" ry="0" style="stroke:black;"/><rect x="80" y="70" width="10" height="10" rx="0" ry="0" style="stroke:black;"/><rect x="90" y="70" width="10" height="10" rx="0" ry="0" style="stroke:black;"/><rect x="100" y="70" width="10" height="10" rx="0" ry="0" style="stroke:black;"/><rect x="110" y="70" width="10" height="10" rx="0" ry="0" style="stroke:black;"/><rect x="130" y="70" width="10" height="10" rx="0" ry="0" style="stroke:black;"/><rect x="140" y="70" width="10" height="10" rx="0" ry="0" style="stroke:black;"/><rect x="150" y="70" width="10" height="10" rx="0" ry="0" style="stroke:black;"/><rect x="10" y="80" width="10" height="10" rx="0" ry="0" style="stroke:black;"/><rect x="20" y="80" width="10" height="10" rx="0" ry="0" style="stroke:black;"/><rect x="30" y="80" width="10" height="10" rx="0" ry="0" style="stroke:black;"/><rect x="40" y="80" width="10" height="10" rx="0" ry="0" style="stroke:black;"/><rect x="60" y="80" width="10" height="10" rx="0" ry="0" style="stroke:black;"/><rect x="70" y="80" width="10" height="10" rx="0" ry="0" style="stroke:black;"/><rect x="80" y="80" width="10" height="10" rx="0" ry="0" style="stroke:black;"/><rect x="90" y="80" width="10" height="10" rx="0" ry="0" style="stroke:black;"/><rect x="100" y="80" width="10" height="10" rx="0" ry="0" style="stroke:black;"/><rect x="110" y="80" width="10" height="10" rx="0" ry="0" style="stroke:black;"/><rect x="130" y="80" width="10" height="10" rx="0" ry="0" style="stroke:black;"/><rect x="140" y="80" width="10" height="10" rx="0" ry="0" style="stroke:black;"/><rect x="150" y="80" width="10" height="10" rx="0" ry="0" style="stroke:black;"/><rect x="160" y="80" width="10" height="10" rx="0" ry="0" style="stroke:black;"/><rect x="20" y="90" width="10" height="10" rx="0" ry="0" style="stroke:black;"/><rect x="30" y="90" width="10" height="10" rx="0" ry="0" style="stroke:black;"/><rect x="40" y="90" width="10" height="10" rx="0" ry="0" style="stroke:black;"/><rect x="60" y="90" width="10" height="10" rx="0" ry="0" style="stroke:black;"/><rect x="70" y="90" width="10" height="10" rx="0" ry="0" style="stroke:black;"/><rect x="80" y="90" width="10" height="10" rx="0" ry="0" style="stroke:black;"/><rect x="90" y="90" width="10" height="10" rx="0" ry="0" style="stroke:black;"/><rect x="100" y="90" width="10" height="10" rx="0" ry="0" style="stroke:black;"/><rect x="110" y="90" width="10" height="10" rx="0" ry="0" style="stroke:black;"/><rect x="130" y="90" width="10" height="10" rx="0" ry="0" style="stroke:black;"/><rect x="140" y="90" width="10" height="10" rx="0" ry="0" style="stroke:black;"/><rect x="150" y="90" width="10" height="10" rx="0" ry="0" style="stroke:black;"/><rect x="160" y="90" width="10" height="10" rx="0" ry="0" style="stroke:black;"/><rect x="10" y="100" width="10" height="10" rx="0" ry="0" style="stroke:black;"/><rect x="70" y="100" width="10" height="10" rx="0" ry="0" style="stroke:black;"/><rect x="80" y="100" width="10" height="10" rx="0" ry="0" style="stroke:black;"/><rect x="90" y="100" width="10" height="10" rx="0" ry="0" style="stroke:black;"/><rect x="100" y="100" width="10" height="10" rx="0" ry="0" style="stroke:black;"/><rect x="120" y="100" width="10" height="10" rx="0" ry="0" style="stroke:black;"/><rect x="130" y="100" width="10" height="10" rx="0" ry="0" style="stroke:black;"/><rect x="140" y="100" width="10" height="10" rx="0" ry="0" style="stroke:black;"/><rect x="150" y="100" width="10" height="10" rx="0" ry="0" style="stroke:black;"/><rect x="160" y="100" width="10" height="10" rx="0" ry="0" style="stroke:black;"/><rect x="0" y="110" width="10" height="10" rx="0" ry="0" style="stroke:black;"/><rect x="10" y="110" width="10" height="10" rx="0" ry="0" style="stroke:black;"/><rect x="20" y="110" width="10" height="10" rx="0" ry="0" style="stroke:black;"/><rect x="30" y="110" width="10" height="10" rx="0" ry="0" style="stroke:black;"/><rect x="40" y="110" width="10" height="10" rx="0" ry="0" style="stroke:black;"/><rect x="60" y="110" width="10" height="10" rx="0" ry="0" style="stroke:black;"/><rect x="110" y="110" width="10" height="10" rx="0" ry="0" style="stroke:black;"/><rect x="120" y="110" width="10" height="10" rx="0" ry="0" style="stroke:black;"/><rect x="130" y="110" width="10" height="10" rx="0" ry="0" style="stroke:black;"/><rect x="140" y="110" width="10" height="10" rx="0" ry="0" style="stroke:black;"/><rect x="150" y="110" width="10" height="10" rx="0" ry="0" style="stroke:black;"/><rect x="160" y="110" width="10" height="10" rx="0" ry="0" style="stroke:black;"/><rect x="0" y="120" width="10" height="10" rx="0" ry="0" style="stroke:black;"/><rect x="10" y="120" width="10" height="10" rx="0" ry="0" style="stroke:black;"/><rect x="20" y="120" width="10" height="10" rx="0" ry="0" style="stroke:black;"/><rect x="30" y="120" width="10" height="10" rx="0" ry="0" style="stroke:black;"/><rect x="40" y="120" width="10" height="10" rx="0" ry="0" style="stroke:black;"/><rect x="60" y="120" width="10" height="10" rx="0" ry="0" style="stroke:black;"/><rect x="70" y="120" width="10" height="10" rx="0" ry="0" style="stroke:black;"/><rect x="80" y="120" width="10" height="10" rx="0" ry="0" style="stroke:black;"/><rect x="90" y="120" width="10" height="10" rx="0" ry="0" style="stroke:black;"/><rect x="100" y="120" width="10" height="10" rx="0" ry="0" style="stroke:black;"/><rect x="120" y="120" width="10" height="10" rx="0" ry="0" style="stroke:black;"/><rect x="130" y="120" width="10" height="10" rx="0" ry="0" style="stroke:black;"/><rect x="140" y="120" width="10" height="10" rx="0" ry="0" style="stroke:black;"/><rect x="170" y="120" width="10" height="10" rx="0" ry="0" style="stroke:black;"/><rect x="180" y="120" width="10" height="10" rx="0" ry="0" style="stroke:black;"/><rect x="0" y="130" width="10" height="10" rx="0" ry="0" style="stroke:black;"/><rect x="10" y="130" width="10" height="10" rx="0" ry="0" style="stroke:black;"/><rect x="20" y="130" width="10" height="10" rx="0" ry="0" style="stroke:black;"/><rect x="30" y="130" width="10" height="10" rx="0" ry="0" style="stroke:black;"/><rect x="50" y="130" width="10" height="10" rx="0" ry="0" style="stroke:black;"/><rect x="60" y="130" width="10" height="10" rx="0" ry="0" style="stroke:black;"/><rect x="70" y="130" width="10" height="10" rx="0" ry="0" style="stroke:black;"/><rect x="80" y="130" width="10" height="10" rx="0" ry="0" style="stroke:black;"/><rect x="90" y="130" width="10" height="10" rx="0" ry="0" style="stroke:black;"/><rect x="100" y="130" width="10" height="10" rx="0" ry="0" style="stroke:black;"/><rect x="110" y="130" width="10" height="10" rx="0" ry="0" style="stroke:black;"/><rect x="150" y="130" width="10" height="10" rx="0" ry="0" style="stroke:black;"/><rect x="160" y="130" width="10" height="10" rx="0" ry="0" style="stroke:black;"/><rect x="170" y="130" width="10" height="10" rx="0" ry="0" style="stroke:black;"/><rect x="180" y="130" width="10" height="10" rx="0" ry="0" style="stroke:black;"/><rect x="190" y="130" width="10" height="10" rx="0" ry="0" style="stroke:black;"/><rect x="10" y="140" width="10" height="10" rx="0" ry="0" style="stroke:black;"/><rect x="20" y="140" width="10" height="10" rx="0" ry="0" style="stroke:black;"/><rect x="30" y="140" width="10" height="10" rx="0" ry="0" style="stroke:black;"/><rect x="50" y="140" width="10" height="10" rx="0" ry="0" style="stroke:black;"/><rect x="60" y="140" width="10" height="10" rx="0" ry="0" style="stroke:black;"/><rect x="70" y="140" width="10" height="10" rx="0" ry="0" style="stroke:black;"/><rect x="80" y="140" width="10" height="10" rx="0" ry="0" style="stroke:black;"/><rect x="90" y="140" width="10" height="10" rx="0" ry="0" style="stroke:black;"/><rect x="100" y="140" width="10" height="10" rx="0" ry="0" style="stroke:black;"/><rect x="110" y="140" width="10" height="10" rx="0" ry="0" style="stroke:black;"/><rect x="140" y="140" width="10" height="10" rx="0" ry="0" style="stroke:black;"/><rect x="150" y="140" width="10" height="10" rx="0" ry="0" style="stroke:black;"/><rect x="160" y="140" width="10" height="10" rx="0" ry="0" style="stroke:black;"/><rect x="170" y="140" width="10" height="10" rx="0" ry="0" style="stroke:black;"/><rect x="180" y="140" width="10" height="10" rx="0" ry="0" style="stroke:black;"/><rect x="190" y="140" width="10" height="10" rx="0" ry="0" style="stroke:black;"/><rect x="50" y="150" width="10" height="10" rx="0" ry="0" style="stroke:black;"/><rect x="60" y="150" width="10" height="10" rx="0" ry="0" style="stroke:black;"/><rect x="70" y="150" width="10" height="10" rx="0" ry="0" style="stroke:black;"/><rect x="80" y="150" width="10" height="10" rx="0" ry="0" style="stroke:black;"/><rect x="90" y="150" width="10" height="10" rx="0" ry="0" style="stroke:black;"/><rect x="100" y="150" width="10" height="10" rx="0" ry="0" style="stroke:black;"/><rect x="120" y="150" width="10" height="10" rx="0" ry="0" style="stroke:black;"/><rect x="140" y="150" width="10" height="10" rx="0" ry="0" style="stroke:black;"/><rect x="150" y="150" width="10" height="10" rx="0" ry="0" style="stroke:black;"/><rect x="160" y="150" width="10" height="10" rx="0" ry="0" style="stroke:black;"/><rect x="170" y="150" width="10" height="10" rx="0" ry="0" style="stroke:black;"/><rect x="180" y="150" width="10" height="10" rx="0" ry="0" style="stroke:black;"/><rect x="190" y="150" width="10" height="10" rx="0" ry="0" style="stroke:black;"/><rect x="10" y="160" width="10" height="10" rx="0" ry="0" style="stroke:black;"/><rect x="20" y="160" width="10" height="10" rx="0" ry="0" style="stroke:black;"/><rect x="30" y="160" width="10" height="10" rx="0" ry="0" style="stroke:black;"/><rect x="40" y="160" width="10" height="10" rx="0" ry="0" style="stroke:black;"/><rect x="60" y="160" width="10" height="10" rx="0" ry="0" style="stroke:black;"/><rect x="70" y="160" width="10" height="10" rx="0" ry="0" style="stroke:black;"/><rect x="80" y="160" width="10" height="10" rx="0" ry="0" style="stroke:black;"/><rect x="90" y="160" width="10" height="10" rx="0" ry="0" style="stroke:black;"/><rect x="110" y="160" width="10" height="10" rx="0" ry="0" style="stroke:black;"/><rect x="120" y="160" width="10" height="10" rx="0" ry="0" style="stroke:black;"/><rect x="130" y="160" width="10" height="10" rx="0" ry="0" style="stroke:black;"/><rect x="150" y="160" width="10" height="10" rx="0" ry="0" style="stroke:black;"/><rect x="160" y="160" width="10" height="10" rx="0" ry="0" style="stroke:black;"/><rect x="170" y="160" width="10" height="10" rx="0" ry="0" style="stroke:black;"/><rect x="180" y="160" width="10" height="10" rx="0" ry="0" style="stroke:black;"/><rect x="0" y="170" width="10" height="10" rx="0" ry="0" style="stroke:black;"/><rect x="10" y="170" width="10" height="10" rx="0" ry="0" style="stroke:black;"/><rect x="20" y="170" width="10" height="10" rx="0" ry="0" style="stroke:black;"/><rect x="30" y="170" width="10" height="10" rx="0" ry="0" style="stroke:black;"/><rect x="40" y="170" width="10" height="10" rx="0" ry="0" style="stroke:black;"/><rect x="50" y="170" width="10" height="10" rx="0" ry="0" style="stroke:black;"/><rect x="100" y="170" width="10" height="10" rx="0" ry="0" style="stroke:black;"/><rect x="110" y="170" width="10" height="10" rx="0" ry="0" style="stroke:black;"/><rect x="120" y="170" width="10" height="10" rx="0" ry="0" style="stroke:black;"/><rect x="130" y="170" width="10" height="10" rx="0" ry="0" style="stroke:black;"/><rect x="150" y="170" width="10" height="10" rx="0" ry="0" style="stroke:black;"/><rect x="160" y="170" width="10" height="10" rx="0" ry="0" style="stroke:black;"/><rect x="170" y="170" width="10" height="10" rx="0" ry="0" style="stroke:black;"/><rect x="180" y="170" width="10" height="10" rx="0" ry="0" style="stroke:black;"/><rect x="0" y="180" width="10" height="10" rx="0" ry="0" style="stroke:black;"/><rect x="10" y="180" width="10" height="10" rx="0" ry="0" style="stroke:black;"/><rect x="20" y="180" width="10" height="10" rx="0" ry="0" style="stroke:black;"/><rect x="30" y="180" width="10" height="10" rx="0" ry="0" style="stroke:black;"/><rect x="40" y="180" width="10" height="10" rx="0" ry="0" style="stroke:black;"/><rect x="50" y="180" width="10" height="10" rx="0" ry="0" style="stroke:black;"/><rect x="70" y="180" width="10" height="10" rx="0" ry="0" style="stroke:black;"/><rect x="80" y="180" width="10" height="10" rx="0" ry="0" style="stroke:black;"/><rect x="100" y="180" width="10" height="10" rx="0" ry="0" style="stroke:black;"/><rect x="110" y="180" width="10" height="10" rx="0" ry="0" style="stroke:black;"/><rect x="120" y="180" width="10" height="10" rx="0" ry="0" style="stroke:black;"/><rect x="130" y="180" width="10" height="10" rx="0" ry="0" style="stroke:black;"/><rect x="140" y="180" width="10" height="10" rx="0" ry="0" style="stroke:black;"/><rect x="0" y="190" width="10" height="10" rx="0" ry="0" style="stroke:black;"/><rect x="10" y="190" width="10" height="10" rx="0" ry="0" style="stroke:black;"/><rect x="20" y="190" width="10" height="10" rx="0" ry="0" style="stroke:black;"/><rect x="30" y="190" width="10" height="10" rx="0" ry="0" style="stroke:black;"/><rect x="40" y="190" width="10" height="10" rx="0" ry="0" style="stroke:black;"/><rect x="60" y="190" width="10" height="10" rx="0" ry="0" style="stroke:black;"/><rect x="70" y="190" width="10" height="10" rx="0" ry="0" style="stroke:black;"/><rect x="80" y="190" width="10" height="10" rx="0" ry="0" style="stroke:black;"/><rect x="90" y="190" width="10" height="10" rx="0" ry="0" style="stroke:black;"/><rect x="110" y="190" width="10" height="10" rx="0" ry="0" style="stroke:black;"/><rect x="120" y="190" width="10" height="10" rx="0" ry="0" style="stroke:black;"/><rect x="130" y="190" width="10" height="10" rx="0" ry="0" style="stroke:black;"/><rect x="0" y="200" width="10" height="10" rx="0" ry="0" style="stroke:black;"/><rect x="10" y="200" width="10" height="10" rx="0" ry="0" style="stroke:black;"/><rect x="20" y="200" width="10" height="10" rx="0" ry="0" style="stroke:black;"/><rect x="30" y="200" width="10" height="10" rx="0" ry="0" style="stroke:black;"/><rect x="40" y="200" width="10" height="10" rx="0" ry="0" style="stroke:black;"/><rect x="60" y="200" width="10" height="10" rx="0" ry="0" style="stroke:black;"/><rect x="70" y="200" width="10" height="10" rx="0" ry="0" style="stroke:black;"/><rect x="80" y="200" width="10" height="10" rx="0" ry="0" style="stroke:black;"/><rect x="90" y="200" width="10" height="10" rx="0" ry="0" style="stroke:black;"/><rect x="100" y="200" width="10" height="10" rx="0" ry="0" style="stroke:black;"/><rect x="140" y="200" width="10" height="10" rx="0" ry="0" style="stroke:black;"/><rect x="150" y="200" width="10" height="10" rx="0" ry="0" style="stroke:black;"/><rect x="10" y="210" width="10" height="10" rx="0" ry="0" style="stroke:black;"/><rect x="20" y="210" width="10" height="10" rx="0" ry="0" style="stroke:black;"/><rect x="30" y="210" width="10" height="10" rx="0" ry="0" style="stroke:black;"/><rect x="40" y="210" width="10" height="10" rx="0" ry="0" style="stroke:black;"/><rect x="60" y="210" width="10" height="10" rx="0" ry="0" style="stroke:black;"/><rect x="70" y="210" width="10" height="10" rx="0" ry="0" style="stroke:black;"/><rect x="80" y="210" width="10" height="10" rx="0" ry="0" style="stroke:black;"/><rect x="90" y="210" width="10" height="10" rx="0" ry="0" style="stroke:black;"/><rect x="100" y="210" width="10" height="10" rx="0" ry="0" style="stroke:black;"/><rect x="120" y="210" width="10" height="10" rx="0" ry="0" style="stroke:black;"/><rect x="130" y="210" width="10" height="10" rx="0" ry="0" style="stroke:black;"/><rect x="140" y="210" width="10" height="10" rx="0" ry="0" style="stroke:black;"/><rect x="150" y="210" width="10" height="10" rx="0" ry="0" style="stroke:black;"/><rect x="160" y="210" width="10" height="10" rx="0" ry="0" style="stroke:black;"/><rect x="50" y="220" width="10" height="10" rx="0" ry="0" style="stroke:black;"/><rect x="60" y="220" width="10" height="10" rx="0" ry="0" style="stroke:black;"/><rect x="70" y="220" width="10" height="10" rx="0" ry="0" style="stroke:black;"/><rect x="80" y="220" width="10" height="10" rx="0" ry="0" style="stroke:black;"/><rect x="90" y="220" width="10" height="10" rx="0" ry="0" style="stroke:black;"/><rect x="100" y="220" width="10" height="10" rx="0" ry="0" style="stroke:black;"/><rect x="120" y="220" width="10" height="10" rx="0" ry="0" style="stroke:black;"/><rect x="130" y="220" width="10" height="10" rx="0" ry="0" style="stroke:black;"/><rect x="140" y="220" width="10" height="10" rx="0" ry="0" style="stroke:black;"/><rect x="150" y="220" width="10" height="10" rx="0" ry="0" style="stroke:black;"/><rect x="160" y="220" width="10" height="10" rx="0" ry="0" style="stroke:black;"/><rect x="60" y="230" width="10" height="10" rx="0" ry="0" style="stroke:black;"/><rect x="70" y="230" width="10" height="10" rx="0" ry="0" style="stroke:black;"/><rect x="80" y="230" width="10" height="10" rx="0" ry="0" style="stroke:black;"/><rect x="90" y="230" width="10" height="10" rx="0" ry="0" style="stroke:black;"/><rect x="110" y="230" width="10" height="10" rx="0" ry="0" style="stroke:black;"/><rect x="120" y="230" width="10" height="10" rx="0" ry="0" style="stroke:black;"/><rect x="130" y="230" width="10" height="10" rx="0" ry="0" style="stroke:black;"/><rect x="140" y="230" width="10" height="10" rx="0" ry="0" style="stroke:black;"/><rect x="150" y="230" width="10" height="10" rx="0" ry="0" style="stroke:black;"/><rect x="160" y="230" width="10" height="10" rx="0" ry="0" style="stroke:black;"/><rect x="40" y="240" width="10" height="10" rx="0" ry="0" style="stroke:black;"/><rect x="50" y="240" width="10" height="10" rx="0" ry="0" style="stroke:black;"/><rect x="120" y="240" width="10" height="10" rx="0" ry="0" style="stroke:black;"/><rect x="130" y="240" width="10" height="10" rx="0" ry="0" style="stroke:black;"/><rect x="140" y="240" width="10" height="10" rx="0" ry="0" style="stroke:black;"/><rect x="150" y="240" width="10" height="10" rx="0" ry="0" style="stroke:black;"/><rect x="30" y="250" width="10" height="10" rx="0" ry="0" style="stroke:black;"/><rect x="40" y="250" width="10" height="10" rx="0" ry="0" style="stroke:black;"/><rect x="50" y="250" width="10" height="10" rx="0" ry="0" style="stroke:black;"/><rect x="60" y="250" width="10" height="10" rx="0" ry="0" style="stroke:black;"/><rect x="70" y="250" width="10" height="10" rx="0" ry="0" style="stroke:black;"/><rect x="80" y="250" width="10" height="10" rx="0" ry="0" style="stroke:black;"/><rect x="90" y="250" width="10" height="10" rx="0" ry="0" style="stroke:black;"/><rect x="110" y="250" width="10" height="10" rx="0" ry="0" style="stroke:black;"/><rect x="130" y="250" width="10" height="10" rx="0" ry="0" style="stroke:black;"/><rect x="140" y="250" width="10" height="10" rx="0" ry="0" style="stroke:black;"/><rect x="30" y="260" width="10" height="10" rx="0" ry="0" style="stroke:black;"/><rect x="40" y="260" width="10" height="10" rx="0" ry="0" style="stroke:black;"/><rect x="50" y="260" width="10" height="10" rx="0" ry="0" style="stroke:black;"/><rect x="60" y="260" width="10" height="10" rx="0" ry="0" style="stroke:black;"/><rect x="70" y="260" width="10" height="10" rx="0" ry="0" style="stroke:black;"/><rect x="80" y="260" width="10" height="10" rx="0" ry="0" style="stroke:black;"/><rect x="110" y="260" width="10" height="10" rx="0" ry="0" style="stroke:black;"/><rect x="120" y="260" width="10" height="10" rx="0" ry="0" style="stroke:black;"/><rect x="30" y="270" width="10" height="10" rx="0" ry="0" style="stroke:black;"/><rect x="40" y="270" width="10" height="10" rx="0" ry="0" style="stroke:black;"/><rect x="50" y="270" width="10" height="10" rx="0" ry="0" style="stroke:black;"/><rect x="60" y="270" width="10" height="10" rx="0" ry="0" style="stroke:black;"/><rect x="70" y="270" width="10" height="10" rx="0" ry="0" style="stroke:black;"/><rect x="80" y="270" width="10" height="10" rx="0" ry="0" style="stroke:black;"/><rect x="100" y="270" width="10" height="10" rx="0" ry="0" style="stroke:black;"/><rect x="110" y="270" width="10" height="10" rx="0" ry="0" style="stroke:black;"/><rect x="120" y="270" width="10" height="10" rx="0" ry="0" style="stroke:black;"/><rect x="130" y="270" width="10" height="10" rx="0" ry="0" style="stroke:black;"/><rect x="140" y="270" width="10" height="10" rx="0" ry="0" style="stroke:black;"/><rect x="40" y="280" width="10" height="10" rx="0" ry="0" style="stroke:black;"/><rect x="50" y="280" width="10" height="10" rx="0" ry="0" style="stroke:black;"/><rect x="60" y="280" width="10" height="10" rx="0" ry="0" style="stroke:black;"/><rect x="70" y="280" width="10" height="10" rx="0" ry="0" style="stroke:black;"/><rect x="90" y="280" width="10" height="10" rx="0" ry="0" style="stroke:black;"/><rect x="100" y="280" width="10" height="10" rx="0" ry="0" style="stroke:black;"/><rect x="110" y="280" width="10" height="10" rx="0" ry="0" style="stroke:black;"/><rect x="120" y="280" width="10" height="10" rx="0" ry="0" style="stroke:black;"/><rect x="130" y="280" width="10" height="10" rx="0" ry="0" style="stroke:black;"/><rect x="140" y="280" width="10" height="10" rx="0" ry="0" style="stroke:black;"/><rect x="90" y="290" width="10" height="10" rx="0" ry="0" style="stroke:black;"/><rect x="100" y="290" width="10" height="10" rx="0" ry="0" style="stroke:black;"/><rect x="110" y="290" width="10" height="10" rx="0" ry="0" style="stroke:black;"/><rect x="120" y="290" width="10" height="10" rx="0" ry="0" style="stroke:black;"/><rect x="130" y="290" width="10" height="10" rx="0" ry="0" style="stroke:black;"/><rect x="140" y="290" width="10" height="10" rx="0" ry="0" style="stroke:black;"/><rect x="50" y="300" width="10" height="10" rx="0" ry="0" style="stroke:black;"/><rect x="60" y="300" width="10" height="10" rx="0" ry="0" style="stroke:black;"/><rect x="70" y="300" width="10" height="10" rx="0" ry="0" style="stroke:black;"/><rect x="80" y="300" width="10" height="10" rx="0" ry="0" style="stroke:black;"/><rect x="100" y="300" width="10" height="10" rx="0" ry="0" style="stroke:black;"/><rect x="110" y="300" width="10" height="10" rx="0" ry="0" style="stroke:black;"/><rect x="120" y="300" width="10" height="10" rx="0" ry="0" style="stroke:black;"/><rect x="130" y="300" width="10" height="10" rx="0" ry="0" style="stroke:black;"/><rect x="50" y="310" width="10" height="10" rx="0" ry="0" style="stroke:black;"/><rect x="60" y="310" width="10" height="10" rx="0" ry="0" style="stroke:black;"/><rect x="70" y="310" width="10" height="10" rx="0" ry="0" style="stroke:black;"/><rect x="80" y="310" width="10" height="10" rx="0" ry="0" style="stroke:black;"/><rect x="90" y="310" width="10" height="10" rx="0" ry="0" style="stroke:black;"/><rect x="110" y="310" width="10" height="10" rx="0" ry="0" style="stroke:black;"/><rect x="120" y="310" width="10" height="10" rx="0" ry="0" style="stroke:black;"/><rect x="130" y="310" width="10" height="10" rx="0" ry="0" style="stroke:black;"/><rect x="50" y="320" width="10" height="10" rx="0" ry="0" style="stroke:black;"/><rect x="60" y="320" width="10" height="10" rx="0" ry="0" style="stroke:black;"/><rect x="70" y="320" width="10" height="10" rx="0" ry="0" style="stroke:black;"/><rect x="80" y="320" width="10" height="10" rx="0" ry="0" style="stroke:black;"/><rect x="90" y="320" width="10" height="10" rx="0" ry="0" style="stroke:black;"/><rect x="100" y="320" width="10" height="10" rx="0" ry="0" style="stroke:black;"/><rect x="140" y="320" width="10" height="10" rx="0" ry="0" style="stroke:black;"/><rect x="60" y="330" width="10" height="10" rx="0" ry="0" style="stroke:black;"/><rect x="70" y="330" width="10" height="10" rx="0" ry="0" style="stroke:black;"/><rect x="80" y="330" width="10" height="10" rx="0" ry="0" style="stroke:black;"/><rect x="90" y="330" width="10" height="10" rx="0" ry="0" style="stroke:black;"/><rect x="100" y="330" width="10" height="10" rx="0" ry="0" style="stroke:black;"/><rect x="120" y="330" width="10" height="10" rx="0" ry="0" style="stroke:black;"/><rect x="130" y="330" width="10" height="10" rx="0" ry="0" style="stroke:black;"/><rect x="140" y="330" width="10" height="10" rx="0" ry="0" style="stroke:black;"/><rect x="70" y="340" width="10" height="10" rx="0" ry="0" style="stroke:black;"/><rect x="80" y="340" width="10" height="10" rx="0" ry="0" style="stroke:black;"/><rect x="90" y="340" width="10" height="10" rx="0" ry="0" style="stroke:black;"/><rect x="110" y="340" width="10" height="10" rx="0" ry="0" style="stroke:black;"/><rect x="120" y="340" width="10" height="10" rx="0" ry="0" style="stroke:black;"/><rect x="130" y="340" width="10" height="10" rx="0" ry="0" style="stroke:black;"/><rect x="140" y="340" width="10" height="10" rx="0" ry="0" style="stroke:black;"/><rect x="60" y="350" width="10" height="10" rx="0" ry="0" style="stroke:black;"/><rect x="110" y="350" width="10" height="10" rx="0" ry="0" style="stroke:black;"/><rect x="120" y="350" width="10" height="10" rx="0" ry="0" style="stroke:black;"/><rect x="130" y="350" width="10" height="10" rx="0" ry="0" style="stroke:black;"/><rect x="60" y="360" width="10" height="10" rx="0" ry="0" style="stroke:black;"/><rect x="70" y="360" width="10" height="10" rx="0" ry="0" style="stroke:black;"/><rect x="80" y="360" width="10" height="10" rx="0" ry="0" style="stroke:black;"/><rect x="90" y="360" width="10" height="10" rx="0" ry="0" style="stroke:black;"/><rect x="100" y="360" width="10" height="10" rx="0" ry="0" style="stroke:black;"/><rect x="60" y="370" width="10" height="10" rx="0" ry="0" style="stroke:black;"/><rect x="70" y="370" width="10" height="10" rx="0" ry="0" style="stroke:black;"/><rect x="80" y="370" width="10" height="10" rx="0" ry="0" style="stroke:black;"/><rect x="90" y="370" width="10" height="10" rx="0" ry="0" style="stroke:black;"/><rect x="100" y="370" width="10" height="10" rx="0" ry="0" style="stroke:black;"/><rect x="110" y="370" width="10" height="10" rx="0" ry="0" style="stroke:black;"/><rect x="70" y="380" width="10" height="10" rx="0" ry="0" style="stroke:black;"/><rect x="80" y="380" width="10" height="10" rx="0" ry="0" style="stroke:black;"/><rect x="90" y="380" width="10" height="10" rx="0" ry="0" style="stroke:black;"/><rect x="100" y="380" width="10" height="10" rx="0" ry="0" style="stroke:black;"/><rect x="110" y="380" width="10" height="10" rx="0" ry="0" style="stroke:black;"/><rect x="80" y="390" width="10" height="10" rx="0" ry="0" style="stroke:black;"/><rect x="90" y="390" width="10" height="10" rx="0" ry="0" style="stroke:black;"/><rect x="100" y="390" width="10" height="10" rx="0" ry="0" style="stroke:black;"/></svg>