<?xml version="1.0" standalone="no"?>
<!DOCTYPE svg PUBLIC "-//W3C//DTD SVG 1.1//EN"
  "http://www.w3.org/Graphics/SVG/1.1/DTD/svg11.dtd">
<svg width="251" height="1" version="1.1"
  xmlns="http://www.w3.org/2000/svg">
<line x1="0" y1="0" x2="250" y2="0" style="stroke:black;"/><line x1="0" y1="0" x2="0" y2="0" style="stroke:black;"/><line x1="10" y1="0" x2="10" y2="0" style="stroke:black;"/><line x1="20" y1="0" x2="20" y2="0" style="stroke:black;"/><line x1="30" y1="0" x2="30" y2="0" style="stroke:black;"/><line x1="40" y1="0" x2="40" y2="0" style="stroke:black;"/><line x1="50" y1="0" x2="50" y2="0" style="stroke:black;"/><line x1="60" y1="0" x2="60" y2="0" style="stroke:black;"/><line x1="70" y1="0" x2="70" y2="0" style="stroke:black;"/><line x1="80" y1="0" x2="80" y2="0" style="stroke:black;"/><line x1="90" y1="0" x2="90" y2="0" style="stroke:black;"/><line x1="100" y1="0" x2="100" y2="0" style="stroke:black;"/><line x1="110" y1="0" x2="110" y2="0" style="stroke:black;"/><line x1="120" y1="0" x2="120" y2="0" style="stroke:black;"/><line x1="130" y1="0" x2="130" y2="0" style="stroke:black;"/><line x1="140" y1="0" x2="140" y2="0" style="stroke:black;"/><line x1="150" y1="0" x2="150" y2="0" style="stroke:black;"/><line x1="160" y1="0" x2="160" y2="0" style="stroke:black;"/><line x1="170" y1="0" x2="170" y2="0" style="stroke:black;"/><line x1="180" y1="0" x2="180" y2="0" style="stroke:black;"/><line x1="190" y1="0" x2="190" y2="0" style="stroke:black;"/><line x1="200" y1="0" x2="200" y2="0" style="stroke:black;"/><line x1="210" y1="0" x2="210" y2="0" style="stroke:black;"/><line x1="220" y1="0" x2="220" y2="0" style="stroke:black;"/><line x1="230" y1="0" x2="230" y2="0" style="stroke:black;"/><line x1="240" y1="0" x2="240" y2="0" style="stroke:black;"/><line x1="250" y1="0" x2="250" y2="0" style="stroke:black;"/><rect x="120" y="30" width="10" height="10" rx="0" ry="0" style="stroke:black;"/><rect x="130" y="30" width="10" height="10" rx="0" ry="0" style="stroke:black;"/><rect x="140" y="30" width="10" height="10" rx="0" ry="0" style="stroke:black;"/><rect x="110" y="40" width="10" height="10" rx="0" ry="0" style="stroke:black;"/><rect x="120" y="40" width="10" height="10" rx="0" ry="0" style="stroke:black;"/><rect x="130" y="40" width="10" height="10" rx="0" ry="0" style="stroke:black;"/><rect x="140" y="40" width="10" height="10" rx="0" ry="0" style="stroke:black;"/><rect x="150" y="40" width="10" height="10" rx="0" ry="0" style="stroke:black;"/><rect x="160" y="40" width="10" height="10" rx="0" ry="0" style="stroke:black;"/><rect x="170" y="40" width="10" height="10" rx="0" ry="0" style="stroke:black;"/><rect x="100" y="50" width="10" height="10" rx="0" ry="0" style="stroke:black;"/><rect x="110" y="50" width="10" height="10" rx="0" ry="0" style="stroke:black;"/><rect x="170" y="50" width="10" height="10" rx="0" ry="0" style="stroke:black;"/><rect x="80" y="60" width="10" height="10" rx="0" ry="0" style="stroke:black;"/><rect x="90" y="60" width="10" height="10" rx="0" ry="0" style="stroke:black;"/><rect x="100" y="60" width="10" height="10" rx="0" ry="0" style="stroke:black;"/><rect x="110" y="60" width="10" height="10" rx="0" ry="0" style="stroke:black;"/><rect x="120" y="60" width="10" height="10" rx="0" ry="0" style="stroke:black;"/><rect x="130" y="60" width="10" height="10" rx="0" ry="0" style="stroke:black;"/><rect x="150" y="60" width="10" height="10" rx="0" ry="0" style="stroke:black;"/><rect x="160" y="60" width="10" height="10" rx="0" ry="0" style="stroke:black;"/><rect x="170" y="60" width="10" height="10" rx="0" ry="0" style="stroke:black;"/><rect x="180" y="60" width="10" height="10" rx="0" ry="0" style="stroke:black;"/><rect x="60" y="70" width="10" height="10" rx="0" ry="0" style="stroke:black;"/><rect x="70" y="70" width="10" height="10" rx="0" ry="0" style="stroke:black;"/><rect x="80" y="70" width="10" height="10" rx="0" ry="0" style="stroke:black;"/><rect x="90" y="70" width="10" height="10" rx="0" ry="0" style="stroke:black;"/><rect x="100" y="70" width="10" height="10" rx="0" ry="0" style="stroke:black;"/><rect x="110" y="70" width="10" height="10" rx="0" ry="0" style="stroke:black;"/><rect x="120" y="70" width="10" height="10" rx="0" ry="0" style="stroke:black;"/><rect x="130" y="70" width="10" height="10" rx="0" ry="0" style="stroke:black;"/><rect x="140" y="70" width="10" height="10" rx="0" ry="0" style="stroke:black;"/><rect x="160" y="70" width="10" height="10" rx="0" ry="0" style="stroke:black;"/><rect x="170" y="70" width="10" height="10" rx="0" ry="0" style="stroke:black;"/><rect x="180" y="70" width="10" height="10" rx="0" ry="0" style="stroke:black;"/><rect x="50" y="80" width="10" height="10" rx="0" ry="0" style="stroke:black;"/><rect x="60" y="80" width="10" height="10" rx="0" ry="0" style="stroke:black;"/><rect x="120" y="80" width="10" height="10" rx="0" ry="0" style="stroke:black;"/><rect x="130" y="80" width="10" height="10" rx="0" ry="0" style="stroke:black;"/><rect x="140" y="80" width="10" height="10" rx="0" ry="0" style="stroke:black;"/><rect x="150" y="80" width="10" height="10" rx="0" ry="0" style="stroke:black;"/><rect x="160" y="80" width="10" height="10" rx="0" ry="0" style="stroke:black;"/><rect x="170" y="80" width="10" height="10" rx="0" ry="0" style="stroke:black;"/><rect x="50" y="90" width="10" height="10" rx="0" ry="0" style="stroke:black;"/><rect x="60" y="90" width="10" height="10" rx="0" ry="0" style="stroke:black;"/><rect x="70" y="90" width="10" height="10" rx="0" ry="0" style="stroke:black;"/><rect x="80" y="90" width="10" height="10" rx="0" ry="0" style="stroke:black;"/><rect x="90" y="90" width="10" height="10" rx="0" ry="0" style="stroke:black;"/><rect x="100" y="90" width="10" height="10" rx="0" ry="0" style="stroke:black;"/><rect x="110" y="90" width="10" height="10" rx="0" ry="0" style="stroke:black;"/><rect x="120" y="90" width="10" height="10" rx="0" ry="0" style="stroke:black;"/><rect x="150" y="90" width="10" height="10" rx="0" ry="0" style="stroke:black;"/><rect x="40" y="100" width="10" height="10" rx="0" ry="0" style="stroke:black;"/><rect x="50" y="100" width="10" height="10" rx="0" ry="0" style="stroke:black;"/><rect x="60" y="100" width="10" height="10" rx="0" ry="0" style="stroke:black;"/><rect x="70" y="100" width="10" height="10" rx="0" ry="0" style="stroke:black;"/><rect x="80" y="100" width="10" height="10" rx="0" ry="0" style="stroke:black;"/><rect x="90" y="100" width="10" height="10" rx="0" ry="0" style="stroke:black;"/><rect x="100" y="100" width="10" height="10" rx="0" ry="0" style="stroke:black;"/><rect x="120" y="100" width="10" height="10" rx="0" ry="0" style="stroke:black;"/><rect x="130" y="100" width="10" height="10" rx="0" ry="0" style="stroke:black;"/><rect x="140" y="100" width="10" height="10" rx="0" ry="0" style="stroke:black;"/><rect x="150" y="100" width="10" height="10" rx="0" ry="0" style="stroke:black;"/><rect x="160" y="100" width="10" height="10" rx="0" ry="0" style="stroke:black;"/><rect x="170" y="100" width="10" height="10" rx="0" ry="0" style="stroke:black;"/><rect x="40" y="110" width="10" height="10" rx="0" ry="0" style="stroke:black;"/><rect x="50" y="110" width="10" height="10" rx="0" ry="0" style="stroke:black;"/><rect x="100" y="110" width="10" height="10" rx="0" ry="0" style="stroke:black;"/><rect x="110" y="110" width="10" height="10" rx="0" ry="0" style="stroke:black;"/><rect x="120" y="110" width="10" height="10" rx="0" ry="0" style="stroke:black;"/><rect x="140" y="110" width="10" height="10" rx="0" ry="0" style="stroke:black;"/><rect x="160" y="110" width="10" height="10" rx="0" ry="0" style="stroke:black;"/><rect x="170" y="110" width="10" height="10" rx="0" ry="0" style="stroke:black;"/><rect x="180" y="110" width="10" height="10" rx="0" ry="0" style="stroke:black;"/><rect x="40" y="120" width="10" height="10" rx="0" ry="0" style="stroke:black;"/><rect x="60" y="120" width="10" height="10" rx="0" ry="0" style="stroke:black;"/><rect x="70" y="120" width="10" height="10" rx="0" ry="0" style="stroke:black;"/><rect x="80" y="120" width="10" height="10" rx="0" ry="0" style="stroke:black;"/><rect x="90" y="120" width="10" height="10" rx="0" ry="0" style="stroke:black;"/><rect x="120" y="120" width="10" height="10" rx="0" ry="0" style="stroke:black;"/><rect x="130" y="120" width="10" height="10" rx="0" ry="0" style="stroke:black;"/><rect x="140" y="120" width="10" height="10" rx="0" ry="0" style="stroke:black;"/><rect x="150" y="120" width="10" height="10" rx="0" ry="0" style="stroke:black;"/><rect x="160" y="120" width="10" height="10" rx="0" ry="0" style="stroke:black;"/><rect x="180" y="120" width="10" height="10" rx="0" ry="0" style="stroke:black;"/><rect x="60" y="130" width="10" height="10" rx="0" ry="0" style="stroke:black;"/><rect x="70" y="130" width="10" height="10" rx="0" ry="0" style="stroke:black;"/><rect x="80" y="130" width="10" height="10" rx="0" ry="0" style="stroke:black;"/><rect x="90" y="130" width="10" height="10" rx="0" ry="0" style="stroke:black;"/><rect x="100" y="130" width="10" height="10" rx="0" ry="0" style="stroke:black;"/><rect x="110" y="130" width="10" height="10" rx="0" ry="0" style="stroke:black;"/><rect x="150" y="130" width="10" height="10" rx="0" ry="0" style="stroke:black;"/><rect x="160" y="130" width="10" height="10" rx="0" ry="0" style="stroke:black;"/><rect x="170" y="130" width="10" height="10" rx="0" ry="0" style="stroke:black;"/><rect x="180" y="130" width="10" height="10" rx="0" ry="0" style="stroke:black;"/><rect x="70" y="140" width="10" height="10" rx="0" ry="0" style="stroke:black;"/><rect x="80" y="140" width="10" height="10" rx="0" ry="0" style="stroke:black;"/><rect x="100" y="140" width="10" height="10" rx="0" ry="0" style="stroke:black;"/><rect x="110" y="140" width="10" height="10" rx="0" ry="0" style="stroke:black;"/><rect x="120" y="140" width="10" height="10" rx="0" ry="0" style="stroke:black;"/><rect x="130" y="140" width="10" height="10" rx="0" ry="0" style="stroke:black;"/><rect x="140" y="140" width="10" height="10" rx="0" ry="0" style="stroke:black;"/><rect x="80" y="150" width="10" height="10" rx="0" ry="0" style="stroke:black;"/><rect x="90" y="150" width="10" height="10" rx="0" ry="0" style="stroke:black;"/><rect x="100" y="150" width="10" height="10" rx="0" ry="0" style="stroke:black;"/><rect x="110" y="150" width="10" height="10" rx="0" ry="0" style="stroke:black;"/><rect x="120" y="150" width="10" height="10" rx="0" ry="0" style="stroke:black;"/><rect x="130" y="150" width="10" height="10" rx="0" ry="0" style="stroke:black;"/><rect x="140" y="150" width="10" height="10" rx="0" ry="0" style="stroke:black;"/><rect x="150" y="150" width="10" height="10" rx="0" ry="0" style="stroke:black;"/><rect x="160" y="150" width="10" height="10" rx="0" ry="0" style="stroke:black;"/><rect x="170" y="150" width="10" height="10" rx="0" ry="0" style="stroke:black;"/><rect x="80" y="160" width="10" height="10" rx="0" ry="0" style="stroke:black;"/><rect x="90" y="160" width="10" height="10" rx="0" ry="0" style="stroke:black;"/><rect x="100" y="160" width="10" height="10" rx="0" ry="0" style="stroke:black;"/><rect x="110" y="160" width="10" height="10" rx="0" ry="0" style="stroke:black;"/><rect x="120" y="160" width="10" height="10" rx="0" ry="0" style="stroke:black;"/><rect x="130" y="160" width="10" height="10" rx="0" ry="0" style="stroke:black;"/><rect x="150" y="160" width="10" height="10" rx="0" ry="0" style="stroke:black;"/><rect x="160" y="160" width="10" height="10" rx="0" ry="0" style="stroke:black;"/><rect x="170" y="160" width="10" height="10" rx="0" ry="0" style="stroke:black;"/><rect x="180" y="160" width="10" height="10" rx="0" ry="0" style="stroke:black;"/><rect x="190" y="160" width="10" height="10" rx="0" ry="0" style="stroke:black;"/><rect x="200" y="160" width="10" height="10" rx="0" ry="0" style="stroke:black;"/><rect x="100" y="170" width="10" height="10" rx="0" ry="0" style="stroke:black;"/><rect x="110" y="170" width="10" height="10" rx="0" ry="0" style="stroke:black;"/><rect x="120" y="170" width="10" height="10" rx="0" ry="0" style="stroke:black;"/><rect x="140" y="170" width="10" height="10" rx="0" ry="0" style="stroke:black;"/><rect x="150" y="170" width="10" height="10" rx="0" ry="0" style="stroke:black;"/><rect x="160" y="170" width="10" height="10" rx="0" ry="0" style="stroke:black;"/><rect x="170" y="170" width="10" height="10" rx="0" ry="0" style="stroke:black;"/><rect x="200" y="170" width="10" height="10" rx="0" ry="0" style="stroke:black;"/><rect x="210" y="170" width="10" height="10" rx="0" ry="0" style="stroke:black;"/><rect x="220" y="170" width="10" height="10" rx="0" ry="0" style="stroke:black;"/><rect x="10" y="180" width="10" height="10" rx="0" ry="0" style="stroke:black;"/><rect x="60" y="180" width="10" height="10" rx="0" ry="0" style="stroke:black;"/><rect x="130" y="180" width="10" height="10" rx="0" ry="0" style="stroke:black;"/><rect x="140" y="180" width="10" height="10" rx="0" ry="0" style="stroke:black;"/><rect x="150" y="180" width="10" height="10" rx="0" ry="0" style="stroke:black;"/><rect x="160" y="180" width="10" height="10" rx="0" ry="0" style="stroke:black;"/><rect x="180" y="180" width="10" height="10" rx="0" ry="0" style="stroke:black;"/><rect x="190" y="180" width="10" height="10" rx="0" ry="0" style="stroke:black;"/><rect x="200" y="180" width="10" height="10" rx="0" ry="0" style="stroke:black;"/><rect x="210" y="180" width="10" height="10" rx="0" ry="0" style="stroke:black;"/><rect x="220" y="180" width="10" height="10" rx="0" ry="0" style="stroke:black;"/><rect x="230" y="180" width="10" height="10" rx="0" ry="0" style="stroke:black;"/><rect x="10" y="190" width="10" height="10" rx="0" ry="0" style="stroke:black;"/><rect x="20" y="190" width="10" height="10" rx="0" ry="0" style="stroke:black;"/><rect x="60" y="190" width="10" height="10" rx="0" ry="0" style="stroke:black;"/><rect x="120" y="190" width="10" height="10" rx="0" ry="0" style="stroke:black;"/><rect x="130" y="190" width="10" height="10" rx="0" ry="0" style="stroke:black;"/><rect x="140" y="190" width="10" height="10" rx="0" ry="0" style="stroke:black;"/><rect x="150" y="190" width="10" height="10" rx="0" ry="0" style="stroke:black;"/><rect x="170" y="190" width="10" height="10" rx="0" ry="0" style="stroke:black;"/><rect x="180" y="190" width="10" height="10" rx="0" ry="0" style="stroke:black;"/><rect x="190" y="190" width="10" height="10" rx="0" ry="0" style="stroke:black;"/><rect x="200" y="190" width="10" height="10" rx="0" ry="0" style="stroke:black;"/><rect x="230" y="190" width="10" height="10" rx="0" ry="0" style="stroke:black;"/><rect x="240" y="190" width="10" height="10" rx="0" ry="0" style="stroke:black;"/><rect x="20" y="200" width="10" height="10" rx="0" ry="0" style="stroke:black;"/><rect x="30" y="200" width="10" height="10" rx="0" ry="0" style="stroke:black;"/><rect x="60" y="200" width="10" height="10" rx="0" ry="0" style="stroke:black;"/><rect x="120" y="200" width="10" height="10" rx="0" ry="0" style="stroke:black;"/><rect x="130" y="200" width="10" height="10" rx="0" ry="0" style="stroke:black;"/><rect x="140" y="200" width="10" height="10" rx="0" ry="0" style="stroke:black;"/><rect x="160" y="200" width="10" height="10" rx="0" ry="0" style="stroke:black;"/><rect x="170" y="200" width="10" height="10" rx="0" ry="0" style="stroke:black;"/><rect x="180" y="200" width="10" height="10" rx="0" ry="0" style="stroke:black;"/><rect x="210" y="200" width="10" height="10" rx="0" ry="0" style="stroke:black;"/><rect x="220" y="200" width="10" height="10" rx="0" ry="0" style="stroke:black;"/><rect x="240" y="200" width="10" height="10" rx="0" ry="0" style="stroke:black;"/><rect x="30" y="210" width="10" height="10" rx="0" ry="0" style="stroke:black;"/><rect x="40" y="210" width="10" height="10" rx="0" ry="0" style="stroke:black;"/><rect x="70" y="210" width="10" height="10" rx="0" ry="0" style="stroke:black;"/><rect x="80" y="210" width="10" height="10" rx="0" ry="0" style="stroke:black;"/><rect x="90" y="210" width="10" height="10" rx="0" ry="0" style="stroke:black;"/><rect x="120" y="210" width="10" height="10" rx="0" ry="0" style="stroke:black;"/><rect x="130" y="210" width="10" height="10" rx="0" ry="0" style="stroke:black;"/><rect x="150" y="210" width="10" height="10" rx="0" ry="0" style="stroke:black;"/><rect x="160" y="210" width="10" height="10" rx="0" ry="0" style="stroke:black;"/><rect x="170" y="210" width="10" height="10" rx="0" ry="0" style="stroke:black;"/><rect x="190" y="210" width="10" height="10" rx="0" ry="0" style="stroke:black;"/><rect x="200" y="210" width="10" height="10" rx="0" ry="0" style="stroke:black;"/><rect x="210" y="210" width="10" height="10" rx="0" ry="0" style="stroke:black;"/><rect x="220" y="210" width="10" height="10" rx="0" ry="0" style="stroke:black;"/><rect x="40" y="220" width="10" height="10" rx="0" ry="0" style="stroke:black;"/><rect x="50" y="220" width="10" height="10" rx="0" ry="0" style="stroke:black;"/><rect x="60" y="220" width="10" height="10" rx="0" ry="0" style="stroke:black;"/><rect x="90" y="220" width="10" height="10" rx="0" ry="0" style="stroke:black;"/><rect x="100" y="220" width="10" height="10" rx="0" ry="0" style="stroke:black;"/><rect x="120" y="220" width="10" height="10" rx="0" ry="0" style="stroke:black;"/><rect x="140" y="220" width="10" height="10" rx="0" ry="0" style="stroke:black;"/><rect x="150" y="220" width="10" height="10" rx="0" ry="0" style="stroke:black;"/><rect x="160" y="220" width="10" height="10" rx="0" ry="0" style="stroke:black;"/><rect x="180" y="220" width="10" height="10" rx="0" ry="0" style="stroke:black;"/><rect x="190" y="220" width="10" height="10" rx="0" ry="0" style="stroke:black;"/><rect x="200" y="220" width="10" height="10" rx="0" ry="0" style="stroke:black;"/><rect x="210" y="220" width="10" height="10" rx="0" ry="0" style="stroke:black;"/><rect x="220" y="220" width="10" height="10" rx="0" ry="0" style="stroke:black;"/><rect x="40" y="230" width="10" height="10" rx="0" ry="0" style="stroke:black;"/><rect x="50" y="230" width="10" height="10" rx="0" ry="0" style="stroke:black;"/><rect x="80" y="230" width="10" height="10" rx="0" ry="0" style="stroke:black;"/><rect x="90" y="230" width="10" height="10" rx="0" ry="0" style="stroke:black;"/><rect x="100" y="230" width="10" height="10" rx="0" ry="0" style="stroke:black;"/><rect x="110" y="230" width="10" height="10" rx="0" ry="0" style="stroke:black;"/><rect x="140" y="230" width="10" height="10" rx="0" ry="0" style="stroke:black;"/><rect x="150" y="230" width="10" height="10" rx="0" ry="0" style="stroke:black;"/><rect x="160" y="230" width="10" height="10" rx="0" ry="0" style="stroke:black;"/><rect x="180" y="230" width="10" height="10" rx="0" ry="0" style="stroke:black;"/><rect x="190" y="230" width="10" height="10" rx="0" ry="0" style="stroke:black;"/><rect x="200" y="230" width="10" height="10" rx="0" ry="0" style="stroke:black;"/><rect x="210" y="230" width="10" height="10" rx="0" ry="0" style="stroke:black;"/><rect x="220" y="230" width="10" height="10" rx="0" ry="0" style="stroke:black;"/><rect x="40" y="240" width="10" height="10" rx="0" ry="0" style="stroke:black;"/><rect x="50" y="240" width="10" height="10" rx="0" ry="0" style="stroke:black;"/><rect x="60" y="240" width="10" height="10" rx="0" ry="0" style="stroke:black;"/><rect x="80" y="240" width="10" height="10" rx="0" ry="0" style="stroke:black;"/><rect x="90" y="240" width="10" height="10" rx="0" ry="0" style="stroke:black;"/><rect x="100" y="240" width="10" height="10" rx="0" ry="0" style="stroke:black;"/><rect x="110" y="240" width="10" height="10" rx="0" ry="0" style="stroke:black;"/><rect x="120" y="240" width="10" height="10" rx="0" ry="0" style="stroke:black;"/><rect x="130" y="240" width="10" height="10" rx="0" ry="0" style="stroke:black;"/><rect x="180" y="240" width="10" height="10" rx="0" ry="0" style="stroke:black;"/><rect x="190" y="240" width="10" height="10" rx="0" ry="0" style="stroke:black;"/><rect x="200" y="240" width="10" height="10" rx="0" ry="0" style="stroke:black;"/><rect x="210" y="240" width="10" height="10" rx="0" ry="0" style="stroke:black;"/><rect x="220" y="240" width="10" height="10" rx="0" ry="0" style="stroke:black;"/><rect x="40" y="250" width="10" height="10" rx="0" ry="0" style="stroke:black;"/><rect x="50" y="250" width="10" height="10" rx="0" ry="0" style="stroke:black;"/><rect x="60" y="250" width="10" height="10" rx="0" ry="0" style="stroke:black;"/><rect x="90" y="250" width="10" height="10" rx="0" ry="0" style="stroke:black;"/><rect x="100" y="250" width="10" height="10" rx="0" ry="0" style="stroke:black;"/><rect x="110" y="250" width="10" height="10" rx="0" ry="0" style="stroke:black;"/><rect x="130" y="250" width="10" height="10" rx="0" ry="0" style="stroke:black;"/><rect x="140" y="250" width="10" height="10" rx="0" ry="0" style="stroke:black;"/><rect x="150" y="250" width="10" height="10" rx="0" ry="0" style="stroke:black;"/><rect x="160" y="250" width="10" height="10" rx="0" ry="0" style="stroke:black;"/><rect x="170" y="250" width="10" height="10" rx="0" ry="0" style="stroke:black;"/><rect x="190" y="250" width="10" height="10" rx="0" ry="0" style="stroke:black;"/><rect x="200" y="250" width="10" height="10" rx="0" ry="0" style="stroke:black;"/><rect x="210" y="250" width="10" height="10" rx="0" ry="0" style="stroke:black;"/><rect x="220" y="250" width="10" height="10" rx="0" ry="0" style="stroke:black;"/><rect x="40" y="260" width="10" height="10" rx="0" ry="0" style="stroke:black;"/><rect x="50" y="260" width="10" height="10" rx="0" ry="0" style="stroke:black;"/><rect x="70" y="260" width="10" height="10" rx="0" ry="0" style="stroke:black;"/><rect x="80" y="260" width="10" height="10" rx="0" ry="0" style="stroke:black;"/><rect x="100" y="260" width="10" height="10" rx="0" ry="0" style="stroke:black;"/><rect x="110" y="260" width="10" height="10" rx="0" ry="0" style="stroke:black;"/><rect x="130" y="260" width="10" height="10" rx="0" ry="0" style="stroke:black;"/><rect x="140" y="260" width="10" height="10" rx="0" ry="0" style="stroke:black;"/><rect x="150" y="260" width="10" height="10" rx="0" ry="0" style="stroke:black;"/><rect x="160" y="260" width="10" height="10" rx="0" ry="0" style="stroke:black;"/><rect x="170" y="260" width="10" height="10" rx="0" ry="0" style="stroke:black;"/><rect x="180" y="260" width="10" height="10" rx="0" ry="0" style="stroke:black;"/><rect x="200" y="260" width="10" height="10" rx="0" ry="0" style="stroke:black;"/><rect x="210" y="260" width="10" height="10" rx="0" ry="0" style="stroke:black;"/><rect x="220" y="260" width="10" height="10" rx="0" ry="0" style="stroke:black;"/><rect x="30" y="270" width="10" height="10" rx="0" ry="0" style="stroke:black;"/><rect x="40" y="270" width="10" height="10" rx="0" ry="0" style="stroke:black;"/><rect x="60" y="270" width="10" height="10" rx="0" ry="0" style="stroke:black;"/><rect x="70" y="270" width="10" height="10" rx="0" ry="0" style="stroke:black;"/><rect x="80" y="270" width="10" height="10" rx="0" ry="0" style="stroke:black;"/><rect x="90" y="270" width="10" height="10" rx="0" ry="0" style="stroke:black;"/><rect x="120" y="270" width="10" height="10" rx="0" ry="0" style="stroke:black;"/><rect x="130" y="270" width="10" height="10" rx="0" ry="0" style="stroke:black;"/><rect x="140" y="270" width="10" height="10" rx="0" ry="0" style="stroke:black;"/><rect x="150" y="270" width="10" height="10" rx="0" ry="0" style="stroke:black;"/><rect x="160" y="270" width="10" height="10" rx="0" ry="0" style="stroke:black;"/><rect x="170" y="270" width="10" height="10" rx="0" ry="0" style="stroke:black;"/><rect x="180" y="270" width="10" height="10" rx="0" ry="0" style="stroke:black;"/><rect x="190" y="270" width="10" height="10" rx="0" ry="0" style="stroke:black;"/><rect x="200" y="270" width="10" height="10" rx="0" ry="0" style="stroke:black;"/><rect x="210" y="270" width="10" height="10" rx="0" ry="0" style="stroke:black;"/><rect x="230" y="270" width="10" height="10" rx="0" ry="0" style="stroke:black;"/><rect x="20" y="280" width="10" height="10" rx="0" ry="0" style="stroke:black;"/><rect x="30" y="280" width="10" height="10" rx="0" ry="0" style="stroke:black;"/><rect x="60" y="280" width="10" height="10" rx="0" ry="0" style="stroke:black;"/><rect x="70" y="280" width="10" height="10" rx="0" ry="0" style="stroke:black;"/><rect x="80" y="280" width="10" height="10" rx="0" ry="0" style="stroke:black;"/><rect x="90" y="280" width="10" height="10" rx="0" ry="0" style="stroke:black;"/><rect x="110" y="280" width="10" height="10" rx="0" ry="0" style="stroke:black;"/><rect x="130" y="280" width="10" height="10" rx="0" ry="0" style="stroke:black;"/><rect x="140" y="280" width="10" height="10" rx="0" ry="0" style="stroke:black;"/><rect x="150" y="280" width="10" height="10" rx="0" ry="0" style="stroke:black;"/><rect x="160" y="280" width="10" height="10" rx="0" ry="0" style="stroke:black;"/><rect x="170" y="280" width="10" height="10" rx="0" ry="0" style="stroke:black;"/><rect x="180" y="280" width="10" height="10" rx="0" ry="0" style="stroke:black;"/><rect x="190" y="280" width="10" height="10" rx="0" ry="0" style="stroke:black;"/><rect x="200" y="280" width="10" height="10" rx="0" ry="0" style="stroke:black;"/><rect x="210" y="280" width="10" height="10" rx="0" ry="0" style="stroke:black;"/><rect x="230" y="280" width="10" height="10" rx="0" ry="0" style="stroke:black;"/><rect x="10" y="290" width="10" height="10" rx="0" ry="0" style="stroke:black;"/><rect x="20" y="290" width="10" height="10" rx="0" ry="0" style="stroke:black;"/><rect x="40" y="290" width="10" height="10" rx="0" ry="0" style="stroke:black;"/><rect x="60" y="290" width="10" height="10" rx="0" ry="0" style="stroke:black;"/><rect x="70" y="290" width="10" height="10" rx="0" ry="0" style="stroke:black;"/><rect x="80" y="290" width="10" height="10" rx="0" ry="0" style="stroke:black;"/><rect x="90" y="290" width="10" height="10" rx="0" ry="0" style="stroke:black;"/><rect x="110" y="290" width="10" height="10" rx="0" ry="0" style="stroke:black;"/><rect x="120" y="290" width="10" height="10" rx="0" ry="0" style="stroke:black;"/><rect x="140" y="290" width="10" height="10" rx="0" ry="0" style="stroke:black;"/><rect x="150" y="290" width="10" height="10" rx="0" ry="0" style="stroke:black;"/><rect x="160" y="290" width="10" height="10" rx="0" ry="0" style="stroke:black;"/><rect x="170" y="290" width="10" height="10" rx="0" ry="0" style="stroke:black;"/><rect x="180" y="290" width="10" height="10" rx="0" ry="0" style="stroke:black;"/><rect x="190" y="290" width="10" height="10" rx="0" ry="0" style="stroke:black;"/><rect x="200" y="290" width="10" height="10" rx="0" ry="0" style="stroke:black;"/><rect x="220" y="290" width="10" height="10" rx="0" ry="0" style="stroke:black;"/><rect x="230" y="290" width="10" height="10" rx="0" ry="0" style="stroke:black;"/><rect x="10" y="300" width="10" height="10" rx="0" ry="0" style="stroke:black;"/><rect x="40" y="300" width="10" height="10" rx="0" ry="0" style="stroke:black;"/><rect x="60" y="300" width="10" height="10" rx="0" ry="0" style="stroke:black;"/><rect x="70" y="300" width="10" height="10" rx="0" ry="0" style="stroke:black;"/><rect x="80" y="300" width="10" height="10" rx="0" ry="0" style="stroke:black;"/><rect x="90" y="300" width="10" height="10" rx="0" ry="0" style="stroke:black;"/><rect x="110" y="300" width="10" height="10" rx="0" ry="0" style="stroke:black;"/><rect x="120" y="300" width="10" height="10" rx="0" ry="0" style="stroke:black;"/><rect x="160" y="300" width="10" height="10" rx="0" ry="0" style="stroke:black;"/><rect x="170" y="300" width="10" height="10" rx="0" ry="0" style="stroke:black;"/><rect x="180" y="300" width="10" height="10" rx="0" ry="0" style="stroke:black;"/><rect x="190" y="300" width="10" height="10" rx="0" ry="0" style="stroke:black;"/><rect x="210" y="300" width="10" height="10" rx="0" ry="0" style="stroke:black;"/><rect x="220" y="300" width="10" height="10" rx="0" ry="0" style="stroke:black;"/><rect x="30" y="310" width="10" height="10" rx="0" ry="0" style="stroke:black;"/><rect x="40" y="310" width="10" height="10" rx="0" ry="0" style="stroke:black;"/><rect x="60" y="310" width="10" height="10" rx="0" ry="0" style="stroke:black;"/><rect x="70" y="310" width="10" height="10" rx="0" ry="0" style="stroke:black;"/><rect x="80" y="310" width="10" height="10" rx="0" ry="0" style="stroke:black;"/><rect x="110" y="310" width="10" height="10" rx="0" ry="0" style="stroke:black;"/><rect x="120" y="310" width="10" height="10" rx="0" ry="0" style="stroke:black;"/><rect x="140" y="310" width="10" height="10" rx="0" ry="0" style="stroke:black;"/><rect x="210" y="310" width="10" height="10" rx="0" ry="0" style="stroke:black;"/><rect x="220" y="310" width="10" height="10" rx="0" ry="0" style="stroke:black;"/><rect x="20" y="320" width="10" height="10" rx="0" ry="0" style="stroke:black;"/><rect x="30" y="320" width="10" height="10" rx="0" ry="0" style="stroke:black;"/><rect x="60" y="320" width="10" height="10" rx="0" ry="0" style="stroke:black;"/><rect x="70" y="320" width="10" height="10" rx="0" ry="0" style="stroke:black;"/><rect x="110" y="320" width="10" height="10" rx="0" ry="0" style="stroke:black;"/><rect x="120" y="320" width="10" height="10" rx="0" ry="0" style="stroke:black;"/><rect x="130" y="320" width="10" height="10" rx="0" ry="0" style="stroke:black;"/><rect x="140" y="320" width="10" height="10" rx="0" ry="0" style="stroke:black;"/><rect x="160" y="320" width="10" height="10" rx="0" ry="0" style="stroke:black;"/><rect x="180" y="320" width="10" height="10" rx="0" ry="0" style="stroke:black;"/><rect x="190" y="320" width="10" height="10" rx="0" ry="0" style="stroke:black;"/><rect x="210" y="320" width="10" height="10" rx="0" ry="0" style="stroke:black;"/><rect x="220" y="320" width="10" height="10" rx="0" ry="0" style="stroke:black;"/><rect x="20" y="330" width="10" height="10" rx="0" ry="0" style="stroke:black;"/><rect x="50" y="330" width="10" height="10" rx="0" ry="0" style="stroke:black;"/><rect x="60" y="330" width="10" height="10" rx="0" ry="0" style="stroke:black;"/><rect x="70" y="330" width="10" height="10" rx="0" ry="0" style="stroke:black;"/><rect x="110" y="330" width="10" height="10" rx="0" ry="0" style="stroke:black;"/><rect x="120" y="330" width="10" height="10" rx="0" ry="0" style="stroke:black;"/><rect x="130" y="330" width="10" height="10" rx="0" ry="0" style="stroke:black;"/><rect x="140" y="330" width="10" height="10" rx="0" ry="0" style="stroke:black;"/><rect x="150" y="330" width="10" height="10" rx="0" ry="0" style="stroke:black;"/><rect x="160" y="330" width="10" height="10" rx="0" ry="0" style="stroke:black;"/><rect x="180" y="330" width="10" height="10" rx="0" ry="0" style="stroke:black;"/><rect x="190" y="330" width="10" height="10" rx="0" ry="0" style="stroke:black;"/><rect x="10" y="340" width="10" height="10" rx="0" ry="0" style="stroke:black;"/><rect x="20" y="340" width="10" height="10" rx="0" ry="0" style="stroke:black;"/><rect x="50" y="340" width="10" height="10" rx="0" ry="0" style="stroke:black;"/><rect x="60" y="340" width="10" height="10" rx="0" ry="0" style="stroke:black;"/><rect x="70" y="340" width="10" height="10" rx="0" ry="0" style="stroke:black;"/><rect x="110" y="340" width="10" height="10" rx="0" ry="0" style="stroke:black;"/><rect x="120" y="340" width="10" height="10" rx="0" ry="0" style="stroke:black;"/><rect x="130" y="340" width="10" height="10" rx="0" ry="0" style="stroke:black;"/><rect x="140" y="340" width="10" height="10" rx="0" ry="0" style="stroke:black;"/><rect x="150" y="340" width="10" height="10" rx="0" ry="0" style="stroke:black;"/><rect x="160" y="340" width="10" height="10" rx="0" ry="0" style="stroke:black;"/><rect x="180" y="340" width="10" height="10" rx="0" ry="0" style="stroke:black;"/><rect x="190" y="340" width="10" height="10" rx="0" ry="0" style="stroke:black;"/><rect x="200" y="340" width="10" height="10" rx="0" ry="0" style="stroke:black;"/><rect x="10" y="350" width="10" height="10" rx="0" ry="0" style="stroke:black;"/><rect x="40" y="350" width="10" height="10" rx="0" ry="0" style="stroke:black;"/><rect x="50" y="350" width="10" height="10" rx="0" ry="0" style="stroke:black;"/><rect x="60" y="350" width="10" height="10" rx="0" ry="0" style="stroke:black;"/><rect x="100" y="350" width="10" height="10" rx="0" ry="0" style="stroke:black;"/><rect x="110" y="350" width="10" height="10" rx="0" ry="0" style="stroke:black;"/><rect x="120" y="350" width="10" height="10" rx="0" ry="0" style="stroke:black;"/><rect x="130" y="350" width="10" height="10" rx="0" ry="0" style="stroke:black;"/><rect x="140" y="350" width="10" height="10" rx="0" ry="0" style="stroke:black;"/><rect x="150" y="350" width="10" height="10" rx="0" ry="0" style="stroke:black;"/><rect x="160" y="350" width="10" height="10" rx="0" ry="0" style="stroke:black;"/><rect x="170" y="350" width="10" height="10" rx="0" ry="0" style="stroke:black;"/><rect x="180" y="350" width="10" height="10" rx="0" ry="0" style="stroke:black;"/><rect x="190" y="350" width="10" height="10" rx="0" ry="0" style="stroke:black;"/><rect x="200" y="350" width="10" height="10" rx="0" ry="0" style="stroke:black;"/><rect x="210" y="350" width="10" height="10" rx="0" ry="0" style="stroke:black;"/><rect x="10" y="360" width="10" height="10" rx="0" ry="0" style="stroke:black;"/><rect x="40" y="360" width="10" height="10" rx="0" ry="0" style="stroke:black;"/><rect x="50" y="360" width="10" height="10" rx="0" ry="0" style="stroke:black;"/><rect x="90" y="360" width="10" height="10" rx="0" ry="0" style="stroke:black;"/><rect x="100" y="360" width="10" height="10" rx="0" ry="0" style="stroke:black;"/><rect x="110" y="360" width="10" height="10" rx="0" ry="0" style="stroke:black;"/><rect x="120" y="360" width="10" height="10" rx="0" ry="0" style="stroke:black;"/><rect x="130" y="360" width="10" height="10" rx="0" ry="0" style="stroke:black;"/><rect x="140" y="360" width="10" height="10" rx="0" ry="0" style="stroke:black;"/><rect x="150" y="360" width="10" height="10" rx="0" ry="0" style="stroke:black;"/><rect x="170" y="360" width="10" height="10" rx="0" ry="0" style="stroke:black;"/><rect x="180" y="360" width="10" height="10" rx="0" ry="0" style="stroke:black;"/><rect x="190" y="360" width="10" height="10" rx="0" ry="0" style="stroke:black;"/><rect x="200" y="360" width="10" height="10" rx="0" ry="0" style="stroke:black;"/><rect x="210" y="360" width="10" height="10" rx="0" ry="0" style="stroke:black;"/><rect x="10" y="370" width="10" height="10" rx="0" ry="0" style="stroke:black;"/><rect x="90" y="370" width="10" height="10" rx="0" ry="0" style="stroke:black;"/><rect x="100" y="370" width="10" height="10" rx="0" ry="0" style="stroke:black;"/><rect x="110" y="370" width="10" height="10" rx="0" ry="0" style="stroke:black;"/><rect x="120" y="370" width="10" height="10" rx="0" ry="0" style="stroke:black;"/><rect x="130" y="370" width="10" height="10" rx="0" ry="0" style="stroke:black;"/><rect x="140" y="370" width="10" height="10" rx="0" ry="0" style="stroke:black;"/><rect x="160" y="370" width="10" height="10" rx="0" ry="0" style="stroke:black;"/><rect x="180" y="370" width="10" height="10" rx="0" ry="0" style="stroke:black;"/><rect x="190" y="370" width="10" height="10" rx="0" ry="0" style="stroke:black;"/><rect x="200" y="370" width="10" height="10" rx="0" ry="0" style="stroke:black;"/><rect x="210" y="370" width="10" height="10" rx="0" ry="0" style="stroke:black;"/><rect x="10" y="380" width="10" height="10" rx="0" ry="0" style="stroke:black;"/><rect x="100" y="380" width="10" height="10" rx="0" ry="0" style="stroke:black;"/><rect x="110" y="380" width="10" height="10" rx="0" ry="0" style="stroke:black;"/><rect x="130" y="380" width="10" height="10" rx="0" ry="0" style="stroke:black;"/><rect x="140" y="380" width="10" height="10" rx="0" ry="0" style="stroke:black;"/><rect x="160" y="380" width="10" height="10" rx="0" ry="0" style="stroke:black;"/><rect x="190" y="380" width="10" height="10" rx="0" ry="0" style="stroke:black;"/><rect x="200" y="380" width="10" height="10" rx="0" ry="0" style="stroke:black;"/><rect x="0" y="390" width="10" height="10" rx="0" ry="0" style="stroke:black;"/><rect x="10" y="390" width="10" height="10" rx="0" ry="0" style="stroke:black;"/><rect x="40" y="390" width="10" height="10" rx="0" ry="0" style="stroke:black;"/><rect x="50" y="390" width="10" height="10" rx="0" ry="0" style="stroke:black;"/><rect x="60" y="390" width="10" height="10" rx="0" ry="0" style="stroke:black;"/><rect x="80" y="390" width="10" height="10" rx="0" ry="0" style="stroke:black;"/><rect x="90" y="390" width="10" height="10" rx="0" ry="0" style="stroke:black;"/><rect x="120" y="390" width="10" height="10" rx="0" ry="0" style="stroke:black;"/><rect x="150" y="390" width="10" height="10" rx="0" ry="0" style="stroke:black;"/><rect x="160" y="390" width="10" height="10" rx="0" ry="0" style="stroke:black;"/><rect x="170" y="390" width="10" height="10" rx="0" ry="0" style="stroke:black;"/><rect x="0" y="400" width="10" height="10" rx="0" ry="0" style="stroke:black;"/><rect x="30" y="400" width="10" height="10" rx="0" ry="0" style="stroke:black;"/><rect x="40" y="400" width="10" height="10" rx="0" ry="0" style="stroke:black;"/><rect x="70" y="400" width="10" height="10" rx="0" ry="0" style="stroke:black;"/><rect x="90" y="400" width="10" height="10" rx="0" ry="0" style="stroke:black;"/><rect x="100" y="400" width="10" height="10" rx="0" ry="0" style="stroke:black;"/><rect x="120" y="400" width="10" height="10" rx="0" ry="0" style="stroke:black;"/><rect x="130" y="400" width="10" height="10" rx="0" ry="0" style="stroke:black;"/><rect x="140" y="400" width="10" height="10" rx="0" ry="0" style="stroke:black;"/><rect x="150" y="400" width="10" height="10" rx="0" ry="0" style="stroke:black;"/><rect x="160" y="400" width="10" height="10" rx="0" ry="0" style="stroke:black;"/><rect x="170" y="400" width="10" height="10" rx="0" ry="0" style="stroke:black;"/><rect x="0" y="410" width="10" height="10" rx="0" ry="0" style="stroke:black;"/><rect x="30" y="410" width="10" height="10" rx="0" ry="0" style="stroke:black;"/><rect x="60" y="410" width="10" height="10" rx="0" ry="0" style="stroke:black;"/><rect x="70" y="410" width="10" height="10" rx="0" ry="0" style="stroke:black;"/><rect x="80" y="410" width="10" height="10" rx="0" ry="0" style="stroke:black;"/><rect x="90" y="410" width="10" height="10" rx="0" ry="0" style="stroke:black;"/><rect x="100" y="410" width="10" height="10" rx="0" ry="0" style="stroke:black;"/><rect x="110" y="410" width="10" height="10" rx="0" ry="0" style="stroke:black;"/><rect x="130" y="410" width="10" height="10" rx="0" ry="0" style="stroke:black;"/><rect x="140" y="410" width="10" height="10" rx="0" ry="0" style="stroke:black;"/><rect x="150" y="410" width="10" height="10" rx="0" ry="0" style="stroke:black;"/><rect x="160" y="410" width="10" height="10" rx="0" ry="0" style="stroke:black;"/><rect x="170" y="410" width="10" height="10" rx="0" ry="0" style="stroke:black;"/><rect x="0" y="420" width="10" height="10" rx="0" ry="0" style="stroke:black;"/><rect x="30" y="420" width="10" height="10" rx="0" ry="0" style="stroke:black;"/><rect x="60" y="420" width="10" height="10" rx="0" ry="0" style="stroke:black;"/><rect x="70" y="420" width="10" height="10" rx="0" ry="0" style="stroke:black;"/><rect x="80" y="420" width="10" height="10" rx="0" ry="0" style="stroke:black;"/><rect x="90" y="420" width="10" height="10" rx="0" ry="0" style="stroke:black;"/><rect x="100" y="420" width="10" height="10" rx="0" ry="0" style="stroke:black;"/><rect x="110" y="420" width="10" height="10" rx="0" ry="0" style="stroke:black;"/><rect x="130" y="420" width="10" height="10" rx="0" ry="0" style="stroke:black;"/><rect x="140" y="420" width="10" height="10" rx="0" ry="0" style="stroke:black;"/><rect x="150" y="420" width="10" height="10" rx="0" ry="0" style="stroke:black;"/><rect x="160" y="420" width="10" height="10" rx="0" ry="0" style="stroke:black;"/><rect x="170" y="420" width="10" height="10" rx="0" ry="0" style="stroke:black;"/><rect x="0" y="430" width="10" height="10" rx="0" ry="0" style="stroke:black;"/><rect x="20" y="430" width="10" height="10" rx="0" ry="0" style="stroke:black;"/><rect x="30" y="430" width="10" height="10" rx="0" ry="0" style="stroke:black;"/><rect x="60" y="430" width="10" height="10" rx="0" ry="0" style="stroke:black;"/><rect x="70" y="430" width="10" height="10" rx="0" ry="0" style="stroke:black;"/><rect x="80" y="430" width="10" height="10" rx="0" ry="0" style="stroke:black;"/><rect x="90" y="430" width="10" height="10" rx="0" ry="0" style="stroke:black;"/><rect x="100" y="430" width="10" height="10" rx="0" ry="0" style="stroke:black;"/><rect x="110" y="430" width="10" height="10" rx="0" ry="0" style="stroke:black;"/><rect x="140" y="430" width="10" height="10" rx="0" ry="0" style="stroke:black;"/><rect x="150" y="430" width="10" height="10" rx="0" ry="0" style="stroke:black;"/><rect x="160" y="430" width="10" height="10" rx="0" ry="0" style="stroke:black;"/><rect x="170" y="430" width="10" height="10" rx="0" ry="0" style="stroke:black;"/><rect x="0" y="440" width="10" height="10" rx="0" ry="0" style="stroke:black;"/><rect x="10" y="440" width="10" height="10" rx="0" ry="0" style="stroke:black;"/><rect x="20" y="440" width="10" height="10" rx="0" ry="0" style="stroke:black;"/><rect x="70" y="440" width="10" height="10" rx="0" ry="0" style="stroke:black;"/><rect x="80" y="440" width="10" height="10" rx="0" ry="0" style="stroke:black;"/><rect x="90" y="440" width="10" height="10" rx="0" ry="0" style="stroke:black;"/><rect x="100" y="440" width="10" height="10" rx="0" ry="0" style="stroke:black;"/><rect x="140" y="440" width="10" height="10" rx="0" ry="0" style="stroke:black;"/><rect x="150" y="440" width="10" height="10" rx="0" ry="0" style="stroke:black;"/><rect x="160" y="440" width="10" height="10" rx="0" ry="0" style="stroke:black;"/></svg>