<?xml version="1.0" standalone="no"?>
<!DOCTYPE svg PUBLIC "-//W3C//DTD SVG 1.1//EN"
  "http://www.w3.org/Graphics/SVG/1.1/DTD/svg11.dtd">
<svg width="471" height="361" version="1.1"
  xmlns="http://www.w3.org/2000/svg">
<line x1="0" y1="0" x2="470" y2="0" style="stroke:black;"/><line x1="0" y1="10" x2="470" y2="10" style="stroke:black;"/><line x1="0" y1="20" x2="470" y2="20" style="stroke:black;"/><line x1="0" y1="30" x2="470" y2="30" style="stroke:black;"/><line x1="0" y1="40" x2="470" y2="40" style="stroke:black;"/><line x1="0" y1="50" x2="470" y2="50" style="stroke:black;"/><line x1="0" y1="60" x2="470" y2="60" style="stroke:black;"/><line x1="0" y1="70" x2="470" y2="70" style="stroke:black;"/><line x1="0" y1="80" x2="470" y2="80" style="stroke:black;"/><line x1="0" y1="90" x2="470" y2="90" style="stroke:black;"/><line x1="0" y1="100" x2="470" y2="100" style="stroke:black;"/><line x1="0" y1="110" x2="470" y2="110" style="stroke:black;"/><line x1="0" y1="120" x2="470" y2="120" style="stroke:black;"/><line x1="0" y1="130" x2="470" y2="130" style="stroke:black;"/><line x1="0" y1="140" x2="470" y2="140" style="stroke:black;"/><line x1="0" y1="150" x2="470" y2="150" style="stroke:black;"/><line x1="0" y1="160" x2="470" y2="160" style="stroke:black;"/><line x1="0" y1="170" x2="470" y2="170" style="stroke:black;"/><line x1="0" y1="180" x2="470" y2="180" style="stroke:black;"/><line x1="0" y1="190" x2="470" y2="190" style="stroke:black;"/><line x1="0" y1="200" x2="470" y2="200" style="stroke:black;"/><line x1="0" y1="210" x2="470" y2="210" style="stroke:black;"/><line x1="0" y1="220" x2="470" y2="220" style="stroke:black;"/><line x1="0" y1="230" x2="470" y2="230" style="stroke:black;"/><line x1="0" y1="240" x2="470" y2="240" style="stroke:black;"/><line x1="0" y1="250" x2="470" y2="250" style="stroke:black;"/><line x1="0" y1="260" x2="470" y2="260" style="stroke:black;"/><line x1="0" y1="270" x2="470" y2="270" style="stroke:black;"/><line x1="0" y1="280" x2="470" y2="280" style="stroke:black;"/><line x1="0" y1="290" x2="470" y2="290" style="stroke:black;"/><line x1="0" y1="300" x2="470" y2="300" style="stroke:black;"/><line x1="0" y1="310" x2="470" y2="310" style="stroke:black;"/><line x1="0" y1="320" x2="470" y2="320" style="stroke:black;"/><line x1="0" y1="330" x2="470" y2="330" style="stroke:black;"/><line x1="0" y1="340" x2="470" y2="340" style="stroke:black;"/><line x1="0" y1="350" x2="470" y2="350" style="stroke:black;"/><line x1="0" y1="360" x2="470" y2="360" style="stroke:black;"/><line x1="0" y1="0" x2="0" y2="360" style="stroke:black;"/><line x1="10" y1="0" x2="10" y2="360" style="stroke:black;"/><line x1="20" y1="0" x2="20" y2="360" style="stroke:black;"/><line x1="30" y1="0" x2="30" y2="360" style="stroke:black;"/><line x1="40" y1="0" x2="40" y2="360" style="stroke:black;"/><line x1="50" y1="0" x2="50" y2="360" style="stroke:black;"/><line x1="60" y1="0" x2="60" y2="360" style="stroke:black;"/><line x1="70" y1="0" x2="70" y2="360" style="stroke:black;"/><line x1="80" y1="0" x2="80" y2="360" style="stroke:black;"/><line x1="90" y1="0" x2="90" y2="360" style="stroke:black;"/><line x1="100" y1="0" x2="100" y2="360" style="stroke:black;"/><line x1="110" y1="0" x2="110" y2="360" style="stroke:black;"/><line x1="120" y1="0" x2="120" y2="360" style="stroke:black;"/><line x1="130" y1="0" x2="130" y2="360" style="stroke:black;"/><line x1="140" y1="0" x2="140" y2="360" style="stroke:black;"/><line x1="150" y1="0" x2="150" y2="360" style="stroke:black;"/><line x1="160" y1="0" x2="160" y2="360" style="stroke:black;"/><line x1="170" y1="0" x2="170" y2="360" style="stroke:black;"/><line x1="180" y1="0" x2="180" y2="360" style="stroke:black;"/><line x1="190" y1="0" x2="190" y2="360" style="stroke:black;"/><line x1="200" y1="0" x2="200" y2="360" style="stroke:black;"/><line x1="210" y1="0" x2="210" y2="360" style="stroke:black;"/><line x1="220" y1="0" x2="220" y2="360" style="stroke:black;"/><line x1="230" y1="0" x2="230" y2="360" style="stroke:black;"/><line x1="240" y1="0" x2="240" y2="360" style="stroke:black;"/><line x1="250" y1="0" x2="250" y2="360" style="stroke:black;"/><line x1="260" y1="0" x2="260" y2="360" style="stroke:black;"/><line x1="270" y1="0" x2="270" y2="360" style="stroke:black;"/><line x1="280" y1="0" x2="280" y2="360" style="stroke:black;"/><line x1="290" y1="0" x2="290" y2="360" style="stroke:black;"/><line x1="300" y1="0" x2="300" y2="360" style="stroke:black;"/><line x1="310" y1="0" x2="310" y2="360" style="stroke:black;"/><line x1="320" y1="0" x2="320" y2="360" style="stroke:black;"/><line x1="330" y1="0" x2="330" y2="360" style="stroke:black;"/><line x1="340" y1="0" x2="340" y2="360" style="stroke:black;"/><line x1="350" y1="0" x2="350" y2="360" style="stroke:black;"/><line x1="360" y1="0" x2="360" y2="360" style="stroke:black;"/><line x1="370" y1="0" x2="370" y2="360" style="stroke:black;"/><line x1="380" y1="0" x2="380" y2="360" style="stroke:black;"/><line x1="390" y1="0" x2="390" y2="360" style="stroke:black;"/><line x1="400" y1="0" x2="400" y2="360" style="stroke:black;"/><line x1="410" y1="0" x2="410" y2="360" style="stroke:black;"/><line x1="420" y1="0" x2="420" y2="360" style="stroke:black;"/><line x1="430" y1="0" x2="430" y2="360" style="stroke:black;"/><line x1="440" y1="0" x2="440" y2="360" style="stroke:black;"/><line x1="450" y1="0" x2="450" y2="360" style="stroke:black;"/><line x1="460" y1="0" x2="460" y2="360" style="stroke:black;"/><line x1="470" y1="0" x2="470" y2="360" style="stroke:black;"/><rect x="60" y="0" width="10" height="10" rx="0" ry="0" style="stroke:black;"/><rect x="70" y="0" width="10" height="10" rx="0" ry="0" style="stroke:black;"/><rect x="230" y="0" width="10" height="10" rx="0" ry="0" style="stroke:black;"/><rect x="50" y="10" width="10" height="10" rx="0" ry="0" style="stroke:black;"/><rect x="60" y="10" width="10" height="10" rx="0" ry="0" style="stroke:black;"/><rect x="70" y="10" width="10" height="10" rx="0" ry="0" style="stroke:black;"/><rect x="230" y="10" width="10" height="10" rx="0" ry="0" style="stroke:black;"/><rect x="50" y="20" width="10" height="10" rx="0" ry="0" style="stroke:black;"/><rect x="60" y="20" width="10" height="10" rx="0" ry="0" style="stroke:black;"/><rect x="70" y="20" width="10" height="10" rx="0" ry="0" style="stroke:black;"/><rect x="220" y="20" width="10" height="10" rx="0" ry="0" style="stroke:black;"/><rect x="230" y="20" width="10" height="10" rx="0" ry="0" style="stroke:black;"/><rect x="240" y="20" width="10" height="10" rx="0" ry="0" style="stroke:black;"/><rect x="50" y="30" width="10" height="10" rx="0" ry="0" style="stroke:black;"/><rect x="70" y="30" width="10" height="10" rx="0" ry="0" style="stroke:black;"/><rect x="80" y="30" width="10" height="10" rx="0" ry="0" style="stroke:black;"/><rect x="220" y="30" width="10" height="10" rx="0" ry="0" style="stroke:black;"/><rect x="230" y="30" width="10" height="10" rx="0" ry="0" style="stroke:black;"/><rect x="240" y="30" width="10" height="10" rx="0" ry="0" style="stroke:black;"/><rect x="50" y="40" width="10" height="10" rx="0" ry="0" style="stroke:black;"/><rect x="80" y="40" width="10" height="10" rx="0" ry="0" style="stroke:black;"/><rect x="90" y="40" width="10" height="10" rx="0" ry="0" style="stroke:black;"/><rect x="100" y="40" width="10" height="10" rx="0" ry="0" style="stroke:black;"/><rect x="220" y="40" width="10" height="10" rx="0" ry="0" style="stroke:black;"/><rect x="230" y="40" width="10" height="10" rx="0" ry="0" style="stroke:black;"/><rect x="240" y="40" width="10" height="10" rx="0" ry="0" style="stroke:black;"/><rect x="50" y="50" width="10" height="10" rx="0" ry="0" style="stroke:black;"/><rect x="80" y="50" width="10" height="10" rx="0" ry="0" style="stroke:black;"/><rect x="90" y="50" width="10" height="10" rx="0" ry="0" style="stroke:black;"/><rect x="100" y="50" width="10" height="10" rx="0" ry="0" style="stroke:black;"/><rect x="110" y="50" width="10" height="10" rx="0" ry="0" style="stroke:black;"/><rect x="120" y="50" width="10" height="10" rx="0" ry="0" style="stroke:black;"/><rect x="210" y="50" width="10" height="10" rx="0" ry="0" style="stroke:black;"/><rect x="220" y="50" width="10" height="10" rx="0" ry="0" style="stroke:black;"/><rect x="230" y="50" width="10" height="10" rx="0" ry="0" style="stroke:black;"/><rect x="240" y="50" width="10" height="10" rx="0" ry="0" style="stroke:black;"/><rect x="250" y="50" width="10" height="10" rx="0" ry="0" style="stroke:black;"/><rect x="390" y="50" width="10" height="10" rx="0" ry="0" style="stroke:black;"/><rect x="400" y="50" width="10" height="10" rx="0" ry="0" style="stroke:black;"/><rect x="410" y="50" width="10" height="10" rx="0" ry="0" style="stroke:black;"/><rect x="40" y="60" width="10" height="10" rx="0" ry="0" style="stroke:black;"/><rect x="50" y="60" width="10" height="10" rx="0" ry="0" style="stroke:black;"/><rect x="80" y="60" width="10" height="10" rx="0" ry="0" style="stroke:black;"/><rect x="110" y="60" width="10" height="10" rx="0" ry="0" style="stroke:black;"/><rect x="120" y="60" width="10" height="10" rx="0" ry="0" style="stroke:black;"/><rect x="130" y="60" width="10" height="10" rx="0" ry="0" style="stroke:black;"/><rect x="140" y="60" width="10" height="10" rx="0" ry="0" style="stroke:black;"/><rect x="150" y="60" width="10" height="10" rx="0" ry="0" style="stroke:black;"/><rect x="160" y="60" width="10" height="10" rx="0" ry="0" style="stroke:black;"/><rect x="170" y="60" width="10" height="10" rx="0" ry="0" style="stroke:black;"/><rect x="180" y="60" width="10" height="10" rx="0" ry="0" style="stroke:black;"/><rect x="190" y="60" width="10" height="10" rx="0" ry="0" style="stroke:black;"/><rect x="200" y="60" width="10" height="10" rx="0" ry="0" style="stroke:black;"/><rect x="210" y="60" width="10" height="10" rx="0" ry="0" style="stroke:black;"/><rect x="220" y="60" width="10" height="10" rx="0" ry="0" style="stroke:black;"/><rect x="230" y="60" width="10" height="10" rx="0" ry="0" style="stroke:black;"/><rect x="240" y="60" width="10" height="10" rx="0" ry="0" style="stroke:black;"/><rect x="250" y="60" width="10" height="10" rx="0" ry="0" style="stroke:black;"/><rect x="390" y="60" width="10" height="10" rx="0" ry="0" style="stroke:black;"/><rect x="400" y="60" width="10" height="10" rx="0" ry="0" style="stroke:black;"/><rect x="410" y="60" width="10" height="10" rx="0" ry="0" style="stroke:black;"/><rect x="40" y="70" width="10" height="10" rx="0" ry="0" style="stroke:black;"/><rect x="80" y="70" width="10" height="10" rx="0" ry="0" style="stroke:black;"/><rect x="90" y="70" width="10" height="10" rx="0" ry="0" style="stroke:black;"/><rect x="150" y="70" width="10" height="10" rx="0" ry="0" style="stroke:black;"/><rect x="160" y="70" width="10" height="10" rx="0" ry="0" style="stroke:black;"/><rect x="170" y="70" width="10" height="10" rx="0" ry="0" style="stroke:black;"/><rect x="180" y="70" width="10" height="10" rx="0" ry="0" style="stroke:black;"/><rect x="190" y="70" width="10" height="10" rx="0" ry="0" style="stroke:black;"/><rect x="200" y="70" width="10" height="10" rx="0" ry="0" style="stroke:black;"/><rect x="210" y="70" width="10" height="10" rx="0" ry="0" style="stroke:black;"/><rect x="220" y="70" width="10" height="10" rx="0" ry="0" style="stroke:black;"/><rect x="230" y="70" width="10" height="10" rx="0" ry="0" style="stroke:black;"/><rect x="240" y="70" width="10" height="10" rx="0" ry="0" style="stroke:black;"/><rect x="250" y="70" width="10" height="10" rx="0" ry="0" style="stroke:black;"/><rect x="260" y="70" width="10" height="10" rx="0" ry="0" style="stroke:black;"/><rect x="270" y="70" width="10" height="10" rx="0" ry="0" style="stroke:black;"/><rect x="280" y="70" width="10" height="10" rx="0" ry="0" style="stroke:black;"/><rect x="390" y="70" width="10" height="10" rx="0" ry="0" style="stroke:black;"/><rect x="400" y="70" width="10" height="10" rx="0" ry="0" style="stroke:black;"/><rect x="410" y="70" width="10" height="10" rx="0" ry="0" style="stroke:black;"/><rect x="40" y="80" width="10" height="10" rx="0" ry="0" style="stroke:black;"/><rect x="90" y="80" width="10" height="10" rx="0" ry="0" style="stroke:black;"/><rect x="220" y="80" width="10" height="10" rx="0" ry="0" style="stroke:black;"/><rect x="230" y="80" width="10" height="10" rx="0" ry="0" style="stroke:black;"/><rect x="240" y="80" width="10" height="10" rx="0" ry="0" style="stroke:black;"/><rect x="270" y="80" width="10" height="10" rx="0" ry="0" style="stroke:black;"/><rect x="280" y="80" width="10" height="10" rx="0" ry="0" style="stroke:black;"/><rect x="290" y="80" width="10" height="10" rx="0" ry="0" style="stroke:black;"/><rect x="300" y="80" width="10" height="10" rx="0" ry="0" style="stroke:black;"/><rect x="310" y="80" width="10" height="10" rx="0" ry="0" style="stroke:black;"/><rect x="320" y="80" width="10" height="10" rx="0" ry="0" style="stroke:black;"/><rect x="330" y="80" width="10" height="10" rx="0" ry="0" style="stroke:black;"/><rect x="340" y="80" width="10" height="10" rx="0" ry="0" style="stroke:black;"/><rect x="350" y="80" width="10" height="10" rx="0" ry="0" style="stroke:black;"/><rect x="360" y="80" width="10" height="10" rx="0" ry="0" style="stroke:black;"/><rect x="370" y="80" width="10" height="10" rx="0" ry="0" style="stroke:black;"/><rect x="380" y="80" width="10" height="10" rx="0" ry="0" style="stroke:black;"/><rect x="390" y="80" width="10" height="10" rx="0" ry="0" style="stroke:black;"/><rect x="400" y="80" width="10" height="10" rx="0" ry="0" style="stroke:black;"/><rect x="40" y="90" width="10" height="10" rx="0" ry="0" style="stroke:black;"/><rect x="90" y="90" width="10" height="10" rx="0" ry="0" style="stroke:black;"/><rect x="230" y="90" width="10" height="10" rx="0" ry="0" style="stroke:black;"/><rect x="310" y="90" width="10" height="10" rx="0" ry="0" style="stroke:black;"/><rect x="320" y="90" width="10" height="10" rx="0" ry="0" style="stroke:black;"/><rect x="330" y="90" width="10" height="10" rx="0" ry="0" style="stroke:black;"/><rect x="340" y="90" width="10" height="10" rx="0" ry="0" style="stroke:black;"/><rect x="350" y="90" width="10" height="10" rx="0" ry="0" style="stroke:black;"/><rect x="360" y="90" width="10" height="10" rx="0" ry="0" style="stroke:black;"/><rect x="370" y="90" width="10" height="10" rx="0" ry="0" style="stroke:black;"/><rect x="380" y="90" width="10" height="10" rx="0" ry="0" style="stroke:black;"/><rect x="390" y="90" width="10" height="10" rx="0" ry="0" style="stroke:black;"/><rect x="400" y="90" width="10" height="10" rx="0" ry="0" style="stroke:black;"/><rect x="410" y="90" width="10" height="10" rx="0" ry="0" style="stroke:black;"/><rect x="420" y="90" width="10" height="10" rx="0" ry="0" style="stroke:black;"/><rect x="30" y="100" width="10" height="10" rx="0" ry="0" style="stroke:black;"/><rect x="40" y="100" width="10" height="10" rx="0" ry="0" style="stroke:black;"/><rect x="90" y="100" width="10" height="10" rx="0" ry="0" style="stroke:black;"/><rect x="100" y="100" width="10" height="10" rx="0" ry="0" style="stroke:black;"/><rect x="230" y="100" width="10" height="10" rx="0" ry="0" style="stroke:black;"/><rect x="380" y="100" width="10" height="10" rx="0" ry="0" style="stroke:black;"/><rect x="400" y="100" width="10" height="10" rx="0" ry="0" style="stroke:black;"/><rect x="420" y="100" width="10" height="10" rx="0" ry="0" style="stroke:black;"/><rect x="30" y="110" width="10" height="10" rx="0" ry="0" style="stroke:black;"/><rect x="100" y="110" width="10" height="10" rx="0" ry="0" style="stroke:black;"/><rect x="230" y="110" width="10" height="10" rx="0" ry="0" style="stroke:black;"/><rect x="380" y="110" width="10" height="10" rx="0" ry="0" style="stroke:black;"/><rect x="400" y="110" width="10" height="10" rx="0" ry="0" style="stroke:black;"/><rect x="420" y="110" width="10" height="10" rx="0" ry="0" style="stroke:black;"/><rect x="20" y="120" width="10" height="10" rx="0" ry="0" style="stroke:black;"/><rect x="30" y="120" width="10" height="10" rx="0" ry="0" style="stroke:black;"/><rect x="100" y="120" width="10" height="10" rx="0" ry="0" style="stroke:black;"/><rect x="230" y="120" width="10" height="10" rx="0" ry="0" style="stroke:black;"/><rect x="380" y="120" width="10" height="10" rx="0" ry="0" style="stroke:black;"/><rect x="400" y="120" width="10" height="10" rx="0" ry="0" style="stroke:black;"/><rect x="420" y="120" width="10" height="10" rx="0" ry="0" style="stroke:black;"/><rect x="20" y="130" width="10" height="10" rx="0" ry="0" style="stroke:black;"/><rect x="100" y="130" width="10" height="10" rx="0" ry="0" style="stroke:black;"/><rect x="110" y="130" width="10" height="10" rx="0" ry="0" style="stroke:black;"/><rect x="230" y="130" width="10" height="10" rx="0" ry="0" style="stroke:black;"/><rect x="380" y="130" width="10" height="10" rx="0" ry="0" style="stroke:black;"/><rect x="400" y="130" width="10" height="10" rx="0" ry="0" style="stroke:black;"/><rect x="420" y="130" width="10" height="10" rx="0" ry="0" style="stroke:black;"/><rect x="20" y="140" width="10" height="10" rx="0" ry="0" style="stroke:black;"/><rect x="110" y="140" width="10" height="10" rx="0" ry="0" style="stroke:black;"/><rect x="230" y="140" width="10" height="10" rx="0" ry="0" style="stroke:black;"/><rect x="370" y="140" width="10" height="10" rx="0" ry="0" style="stroke:black;"/><rect x="380" y="140" width="10" height="10" rx="0" ry="0" style="stroke:black;"/><rect x="400" y="140" width="10" height="10" rx="0" ry="0" style="stroke:black;"/><rect x="420" y="140" width="10" height="10" rx="0" ry="0" style="stroke:black;"/><rect x="430" y="140" width="10" height="10" rx="0" ry="0" style="stroke:black;"/><rect x="10" y="150" width="10" height="10" rx="0" ry="0" style="stroke:black;"/><rect x="20" y="150" width="10" height="10" rx="0" ry="0" style="stroke:black;"/><rect x="110" y="150" width="10" height="10" rx="0" ry="0" style="stroke:black;"/><rect x="230" y="150" width="10" height="10" rx="0" ry="0" style="stroke:black;"/><rect x="370" y="150" width="10" height="10" rx="0" ry="0" style="stroke:black;"/><rect x="400" y="150" width="10" height="10" rx="0" ry="0" style="stroke:black;"/><rect x="430" y="150" width="10" height="10" rx="0" ry="0" style="stroke:black;"/><rect x="10" y="160" width="10" height="10" rx="0" ry="0" style="stroke:black;"/><rect x="110" y="160" width="10" height="10" rx="0" ry="0" style="stroke:black;"/><rect x="120" y="160" width="10" height="10" rx="0" ry="0" style="stroke:black;"/><rect x="230" y="160" width="10" height="10" rx="0" ry="0" style="stroke:black;"/><rect x="370" y="160" width="10" height="10" rx="0" ry="0" style="stroke:black;"/><rect x="400" y="160" width="10" height="10" rx="0" ry="0" style="stroke:black;"/><rect x="430" y="160" width="10" height="10" rx="0" ry="0" style="stroke:black;"/><rect x="10" y="170" width="10" height="10" rx="0" ry="0" style="stroke:black;"/><rect x="120" y="170" width="10" height="10" rx="0" ry="0" style="stroke:black;"/><rect x="230" y="170" width="10" height="10" rx="0" ry="0" style="stroke:black;"/><rect x="360" y="170" width="10" height="10" rx="0" ry="0" style="stroke:black;"/><rect x="370" y="170" width="10" height="10" rx="0" ry="0" style="stroke:black;"/><rect x="400" y="170" width="10" height="10" rx="0" ry="0" style="stroke:black;"/><rect x="430" y="170" width="10" height="10" rx="0" ry="0" style="stroke:black;"/><rect x="440" y="170" width="10" height="10" rx="0" ry="0" style="stroke:black;"/><rect x="0" y="180" width="10" height="10" rx="0" ry="0" style="stroke:black;"/><rect x="10" y="180" width="10" height="10" rx="0" ry="0" style="stroke:black;"/><rect x="120" y="180" width="10" height="10" rx="0" ry="0" style="stroke:black;"/><rect x="130" y="180" width="10" height="10" rx="0" ry="0" style="stroke:black;"/><rect x="230" y="180" width="10" height="10" rx="0" ry="0" style="stroke:black;"/><rect x="360" y="180" width="10" height="10" rx="0" ry="0" style="stroke:black;"/><rect x="400" y="180" width="10" height="10" rx="0" ry="0" style="stroke:black;"/><rect x="440" y="180" width="10" height="10" rx="0" ry="0" style="stroke:black;"/><rect x="0" y="190" width="10" height="10" rx="0" ry="0" style="stroke:black;"/><rect x="130" y="190" width="10" height="10" rx="0" ry="0" style="stroke:black;"/><rect x="230" y="190" width="10" height="10" rx="0" ry="0" style="stroke:black;"/><rect x="360" y="190" width="10" height="10" rx="0" ry="0" style="stroke:black;"/><rect x="400" y="190" width="10" height="10" rx="0" ry="0" style="stroke:black;"/><rect x="440" y="190" width="10" height="10" rx="0" ry="0" style="stroke:black;"/><rect x="0" y="200" width="10" height="10" rx="0" ry="0" style="stroke:black;"/><rect x="10" y="200" width="10" height="10" rx="0" ry="0" style="stroke:black;"/><rect x="20" y="200" width="10" height="10" rx="0" ry="0" style="stroke:black;"/><rect x="30" y="200" width="10" height="10" rx="0" ry="0" style="stroke:black;"/><rect x="40" y="200" width="10" height="10" rx="0" ry="0" style="stroke:black;"/><rect x="50" y="200" width="10" height="10" rx="0" ry="0" style="stroke:black;"/><rect x="60" y="200" width="10" height="10" rx="0" ry="0" style="stroke:black;"/><rect x="70" y="200" width="10" height="10" rx="0" ry="0" style="stroke:black;"/><rect x="80" y="200" width="10" height="10" rx="0" ry="0" style="stroke:black;"/><rect x="90" y="200" width="10" height="10" rx="0" ry="0" style="stroke:black;"/><rect x="100" y="200" width="10" height="10" rx="0" ry="0" style="stroke:black;"/><rect x="110" y="200" width="10" height="10" rx="0" ry="0" style="stroke:black;"/><rect x="120" y="200" width="10" height="10" rx="0" ry="0" style="stroke:black;"/><rect x="130" y="200" width="10" height="10" rx="0" ry="0" style="stroke:black;"/><rect x="230" y="200" width="10" height="10" rx="0" ry="0" style="stroke:black;"/><rect x="350" y="200" width="10" height="10" rx="0" ry="0" style="stroke:black;"/><rect x="360" y="200" width="10" height="10" rx="0" ry="0" style="stroke:black;"/><rect x="400" y="200" width="10" height="10" rx="0" ry="0" style="stroke:black;"/><rect x="440" y="200" width="10" height="10" rx="0" ry="0" style="stroke:black;"/><rect x="450" y="200" width="10" height="10" rx="0" ry="0" style="stroke:black;"/><rect x="20" y="210" width="10" height="10" rx="0" ry="0" style="stroke:black;"/><rect x="30" y="210" width="10" height="10" rx="0" ry="0" style="stroke:black;"/><rect x="40" y="210" width="10" height="10" rx="0" ry="0" style="stroke:black;"/><rect x="50" y="210" width="10" height="10" rx="0" ry="0" style="stroke:black;"/><rect x="60" y="210" width="10" height="10" rx="0" ry="0" style="stroke:black;"/><rect x="70" y="210" width="10" height="10" rx="0" ry="0" style="stroke:black;"/><rect x="80" y="210" width="10" height="10" rx="0" ry="0" style="stroke:black;"/><rect x="90" y="210" width="10" height="10" rx="0" ry="0" style="stroke:black;"/><rect x="100" y="210" width="10" height="10" rx="0" ry="0" style="stroke:black;"/><rect x="110" y="210" width="10" height="10" rx="0" ry="0" style="stroke:black;"/><rect x="230" y="210" width="10" height="10" rx="0" ry="0" style="stroke:black;"/><rect x="350" y="210" width="10" height="10" rx="0" ry="0" style="stroke:black;"/><rect x="400" y="210" width="10" height="10" rx="0" ry="0" style="stroke:black;"/><rect x="450" y="210" width="10" height="10" rx="0" ry="0" style="stroke:black;"/><rect x="20" y="220" width="10" height="10" rx="0" ry="0" style="stroke:black;"/><rect x="30" y="220" width="10" height="10" rx="0" ry="0" style="stroke:black;"/><rect x="40" y="220" width="10" height="10" rx="0" ry="0" style="stroke:black;"/><rect x="50" y="220" width="10" height="10" rx="0" ry="0" style="stroke:black;"/><rect x="60" y="220" width="10" height="10" rx="0" ry="0" style="stroke:black;"/><rect x="70" y="220" width="10" height="10" rx="0" ry="0" style="stroke:black;"/><rect x="80" y="220" width="10" height="10" rx="0" ry="0" style="stroke:black;"/><rect x="90" y="220" width="10" height="10" rx="0" ry="0" style="stroke:black;"/><rect x="100" y="220" width="10" height="10" rx="0" ry="0" style="stroke:black;"/><rect x="110" y="220" width="10" height="10" rx="0" ry="0" style="stroke:black;"/><rect x="230" y="220" width="10" height="10" rx="0" ry="0" style="stroke:black;"/><rect x="350" y="220" width="10" height="10" rx="0" ry="0" style="stroke:black;"/><rect x="400" y="220" width="10" height="10" rx="0" ry="0" style="stroke:black;"/><rect x="450" y="220" width="10" height="10" rx="0" ry="0" style="stroke:black;"/><rect x="230" y="230" width="10" height="10" rx="0" ry="0" style="stroke:black;"/><rect x="340" y="230" width="10" height="10" rx="0" ry="0" style="stroke:black;"/><rect x="350" y="230" width="10" height="10" rx="0" ry="0" style="stroke:black;"/><rect x="400" y="230" width="10" height="10" rx="0" ry="0" style="stroke:black;"/><rect x="450" y="230" width="10" height="10" rx="0" ry="0" style="stroke:black;"/><rect x="460" y="230" width="10" height="10" rx="0" ry="0" style="stroke:black;"/><rect x="220" y="240" width="10" height="10" rx="0" ry="0" style="stroke:black;"/><rect x="230" y="240" width="10" height="10" rx="0" ry="0" style="stroke:black;"/><rect x="240" y="240" width="10" height="10" rx="0" ry="0" style="stroke:black;"/><rect x="340" y="240" width="10" height="10" rx="0" ry="0" style="stroke:black;"/><rect x="400" y="240" width="10" height="10" rx="0" ry="0" style="stroke:black;"/><rect x="460" y="240" width="10" height="10" rx="0" ry="0" style="stroke:black;"/><rect x="220" y="250" width="10" height="10" rx="0" ry="0" style="stroke:black;"/><rect x="230" y="250" width="10" height="10" rx="0" ry="0" style="stroke:black;"/><rect x="240" y="250" width="10" height="10" rx="0" ry="0" style="stroke:black;"/><rect x="340" y="250" width="10" height="10" rx="0" ry="0" style="stroke:black;"/><rect x="350" y="250" width="10" height="10" rx="0" ry="0" style="stroke:black;"/><rect x="360" y="250" width="10" height="10" rx="0" ry="0" style="stroke:black;"/><rect x="370" y="250" width="10" height="10" rx="0" ry="0" style="stroke:black;"/><rect x="380" y="250" width="10" height="10" rx="0" ry="0" style="stroke:black;"/><rect x="390" y="250" width="10" height="10" rx="0" ry="0" style="stroke:black;"/><rect x="400" y="250" width="10" height="10" rx="0" ry="0" style="stroke:black;"/><rect x="410" y="250" width="10" height="10" rx="0" ry="0" style="stroke:black;"/><rect x="420" y="250" width="10" height="10" rx="0" ry="0" style="stroke:black;"/><rect x="430" y="250" width="10" height="10" rx="0" ry="0" style="stroke:black;"/><rect x="440" y="250" width="10" height="10" rx="0" ry="0" style="stroke:black;"/><rect x="450" y="250" width="10" height="10" rx="0" ry="0" style="stroke:black;"/><rect x="460" y="250" width="10" height="10" rx="0" ry="0" style="stroke:black;"/><rect x="220" y="260" width="10" height="10" rx="0" ry="0" style="stroke:black;"/><rect x="230" y="260" width="10" height="10" rx="0" ry="0" style="stroke:black;"/><rect x="240" y="260" width="10" height="10" rx="0" ry="0" style="stroke:black;"/><rect x="350" y="260" width="10" height="10" rx="0" ry="0" style="stroke:black;"/><rect x="360" y="260" width="10" height="10" rx="0" ry="0" style="stroke:black;"/><rect x="370" y="260" width="10" height="10" rx="0" ry="0" style="stroke:black;"/><rect x="380" y="260" width="10" height="10" rx="0" ry="0" style="stroke:black;"/><rect x="390" y="260" width="10" height="10" rx="0" ry="0" style="stroke:black;"/><rect x="400" y="260" width="10" height="10" rx="0" ry="0" style="stroke:black;"/><rect x="410" y="260" width="10" height="10" rx="0" ry="0" style="stroke:black;"/><rect x="420" y="260" width="10" height="10" rx="0" ry="0" style="stroke:black;"/><rect x="430" y="260" width="10" height="10" rx="0" ry="0" style="stroke:black;"/><rect x="440" y="260" width="10" height="10" rx="0" ry="0" style="stroke:black;"/><rect x="450" y="260" width="10" height="10" rx="0" ry="0" style="stroke:black;"/><rect x="220" y="270" width="10" height="10" rx="0" ry="0" style="stroke:black;"/><rect x="230" y="270" width="10" height="10" rx="0" ry="0" style="stroke:black;"/><rect x="240" y="270" width="10" height="10" rx="0" ry="0" style="stroke:black;"/><rect x="350" y="270" width="10" height="10" rx="0" ry="0" style="stroke:black;"/><rect x="360" y="270" width="10" height="10" rx="0" ry="0" style="stroke:black;"/><rect x="370" y="270" width="10" height="10" rx="0" ry="0" style="stroke:black;"/><rect x="380" y="270" width="10" height="10" rx="0" ry="0" style="stroke:black;"/><rect x="390" y="270" width="10" height="10" rx="0" ry="0" style="stroke:black;"/><rect x="400" y="270" width="10" height="10" rx="0" ry="0" style="stroke:black;"/><rect x="410" y="270" width="10" height="10" rx="0" ry="0" style="stroke:black;"/><rect x="420" y="270" width="10" height="10" rx="0" ry="0" style="stroke:black;"/><rect x="430" y="270" width="10" height="10" rx="0" ry="0" style="stroke:black;"/><rect x="440" y="270" width="10" height="10" rx="0" ry="0" style="stroke:black;"/><rect x="220" y="280" width="10" height="10" rx="0" ry="0" style="stroke:black;"/><rect x="230" y="280" width="10" height="10" rx="0" ry="0" style="stroke:black;"/><rect x="240" y="280" width="10" height="10" rx="0" ry="0" style="stroke:black;"/><rect x="220" y="290" width="10" height="10" rx="0" ry="0" style="stroke:black;"/><rect x="230" y="290" width="10" height="10" rx="0" ry="0" style="stroke:black;"/><rect x="240" y="290" width="10" height="10" rx="0" ry="0" style="stroke:black;"/><rect x="220" y="300" width="10" height="10" rx="0" ry="0" style="stroke:black;"/><rect x="230" y="300" width="10" height="10" rx="0" ry="0" style="stroke:black;"/><rect x="240" y="300" width="10" height="10" rx="0" ry="0" style="stroke:black;"/><rect x="220" y="310" width="10" height="10" rx="0" ry="0" style="stroke:black;"/><rect x="230" y="310" width="10" height="10" rx="0" ry="0" style="stroke:black;"/><rect x="240" y="310" width="10" height="10" rx="0" ry="0" style="stroke:black;"/><rect x="190" y="320" width="10" height="10" rx="0" ry="0" style="stroke:black;"/><rect x="200" y="320" width="10" height="10" rx="0" ry="0" style="stroke:black;"/><rect x="210" y="320" width="10" height="10" rx="0" ry="0" style="stroke:black;"/><rect x="220" y="320" width="10" height="10" rx="0" ry="0" style="stroke:black;"/><rect x="230" y="320" width="10" height="10" rx="0" ry="0" style="stroke:black;"/><rect x="240" y="320" width="10" height="10" rx="0" ry="0" style="stroke:black;"/><rect x="250" y="320" width="10" height="10" rx="0" ry="0" style="stroke:black;"/><rect x="260" y="320" width="10" height="10" rx="0" ry="0" style="stroke:black;"/><rect x="270" y="320" width="10" height="10" rx="0" ry="0" style="stroke:black;"/><rect x="190" y="330" width="10" height="10" rx="0" ry="0" style="stroke:black;"/><rect x="200" y="330" width="10" height="10" rx="0" ry="0" style="stroke:black;"/><rect x="210" y="330" width="10" height="10" rx="0" ry="0" style="stroke:black;"/><rect x="220" y="330" width="10" height="10" rx="0" ry="0" style="stroke:black;"/><rect x="230" y="330" width="10" height="10" rx="0" ry="0" style="stroke:black;"/><rect x="240" y="330" width="10" height="10" rx="0" ry="0" style="stroke:black;"/><rect x="250" y="330" width="10" height="10" rx="0" ry="0" style="stroke:black;"/><rect x="260" y="330" width="10" height="10" rx="0" ry="0" style="stroke:black;"/><rect x="270" y="330" width="10" height="10" rx="0" ry="0" style="stroke:black;"/><rect x="140" y="340" width="10" height="10" rx="0" ry="0" style="stroke:black;"/><rect x="150" y="340" width="10" height="10" rx="0" ry="0" style="stroke:black;"/><rect x="160" y="340" width="10" height="10" rx="0" ry="0" style="stroke:black;"/><rect x="170" y="340" width="10" height="10" rx="0" ry="0" style="stroke:black;"/><rect x="180" y="340" width="10" height="10" rx="0" ry="0" style="stroke:black;"/><rect x="190" y="340" width="10" height="10" rx="0" ry="0" style="stroke:black;"/><rect x="200" y="340" width="10" height="10" rx="0" ry="0" style="stroke:black;"/><rect x="210" y="340" width="10" height="10" rx="0" ry="0" style="stroke:black;"/><rect x="220" y="340" width="10" height="10" rx="0" ry="0" style="stroke:black;"/><rect x="230" y="340" width="10" height="10" rx="0" ry="0" style="stroke:black;"/><rect x="240" y="340" width="10" height="10" rx="0" ry="0" style="stroke:black;"/><rect x="250" y="340" width="10" height="10" rx="0" ry="0" style="stroke:black;"/><rect x="260" y="340" width="10" height="10" rx="0" ry="0" style="stroke:black;"/><rect x="270" y="340" width="10" height="10" rx="0" ry="0" style="stroke:black;"/><rect x="280" y="340" width="10" height="10" rx="0" ry="0" style="stroke:black;"/><rect x="290" y="340" width="10" height="10" rx="0" ry="0" style="stroke:black;"/><rect x="300" y="340" width="10" height="10" rx="0" ry="0" style="stroke:black;"/><rect x="310" y="340" width="10" height="10" rx="0" ry="0" style="stroke:black;"/><rect x="320" y="340" width="10" height="10" rx="0" ry="0" style="stroke:black;"/><rect x="140" y="350" width="10" height="10" rx="0" ry="0" style="stroke:black;"/><rect x="150" y="350" width="10" height="10" rx="0" ry="0" style="stroke:black;"/><rect x="160" y="350" width="10" height="10" rx="0" ry="0" style="stroke:black;"/><rect x="170" y="350" width="10" height="10" rx="0" ry="0" style="stroke:black;"/><rect x="180" y="350" width="10" height="10" rx="0" ry="0" style="stroke:black;"/><rect x="190" y="350" width="10" height="10" rx="0" ry="0" style="stroke:black;"/><rect x="200" y="350" width="10" height="10" rx="0" ry="0" style="stroke:black;"/><rect x="210" y="350" width="10" height="10" rx="0" ry="0" style="stroke:black;"/><rect x="220" y="350" width="10" height="10" rx="0" ry="0" style="stroke:black;"/><rect x="230" y="350" width="10" height="10" rx="0" ry="0" style="stroke:black;"/><rect x="240" y="350" width="10" height="10" rx="0" ry="0" style="stroke:black;"/><rect x="250" y="350" width="10" height="10" rx="0" ry="0" style="stroke:black;"/><rect x="260" y="350" width="10" height="10" rx="0" ry="0" style="stroke:black;"/><rect x="270" y="350" width="10" height="10" rx="0" ry="0" style="stroke:black;"/><rect x="280" y="350" width="10" height="10" rx="0" ry="0" style="stroke:black;"/><rect x="290" y="350" width="10" height="10" rx="0" ry="0" style="stroke:black;"/><rect x="300" y="350" width="10" height="10" rx="0" ry="0" style="stroke:black;"/><rect x="310" y="350" width="10" height="10" rx="0" ry="0" style="stroke:black;"/><rect x="320" y="350" width="10" height="10" rx="0" ry="0" style="stroke:black;"/></svg>